<?xml version="1.0" encoding="utf-8"?>
<!-- Generator: Adobe Illustrator 22.1.0, SVG Export Plug-In . SVG Version: 6.00 Build 0)  -->
<svg version="1.1" id="Layer_1" xmlns="http://www.w3.org/2000/svg" xmlns:xlink="http://www.w3.org/1999/xlink" x="0px" y="0px"
	 viewBox="0 0 80 80" style="enable-background:new 0 0 80 80;" xml:space="preserve">
<style type="text/css">
	.st0{fill:#DD5656;}
</style>
<path class="st0" d="M40,80C17.9,80,0,62.1,0,40C0,17.9,17.9,0,40,0c22.1,0,40,17.9,40,40C80,62.1,62.1,80,40,80z M40,1
	C18.5,1,1,18.5,1,40s17.5,39,39,39s39-17.5,39-39S61.5,1,40,1z"/>
<path class="st0" d="M52.7,28.3c-0.4-0.4-1-0.4-1.4,0L40,39.6L28.7,28.3c-0.4-0.4-1-0.4-1.4,0s-0.4,1,0,1.4L38.6,41L28.3,51.3
	c-0.4,0.4-0.4,1,0,1.4c0.2,0.2,0.5,0.3,0.7,0.3s0.5-0.1,0.7-0.3L40,42.4l10.3,10.3c0.2,0.2,0.5,0.3,0.7,0.3s0.5-0.1,0.7-0.3
	c0.4-0.4,0.4-1,0-1.4L41.4,41l11.3-11.3C53.1,29.3,53.1,28.7,52.7,28.3z"/>
</svg>
