<svg width="16" height="16" viewBox="0 0 16 16" fill="none" xmlns="http://www.w3.org/2000/svg">
<path fill-rule="evenodd" clip-rule="evenodd" d="M8 16C12.4183 16 16 12.4183 16 8C16 3.58172 12.4183 0 8 0C3.58172 0 0 3.58172 0 8C0 12.4183 3.58172 16 8 16ZM7.89936 12.5C7.65974 12.5 7.44409 12.4209 7.26837 12.2652C7.08466 12.1078 6.99681 11.889 6.99681 11.6078C6.99681 11.3578 7.08466 11.1486 7.26038 10.9776C7.4361 10.8075 7.64377 10.722 7.89936 10.722C8.14697 10.722 8.36262 10.8075 8.53035 10.9776C8.69808 11.1486 8.78594 11.3578 8.78594 11.6078C8.78594 11.8858 8.69808 12.103 8.52236 12.262C8.33866 12.4201 8.13099 12.5 7.89936 12.5ZM5 5.98482C5 5.60863 5.11981 5.22764 5.35943 4.84105C5.60703 4.45447 5.95847 4.13419 6.42173 3.88099C6.88498 3.6278 7.42811 3.5 8.04313 3.5C8.61821 3.5 9.12141 3.60623 9.5607 3.81869C10 4.03035 10.3435 4.31869 10.5831 4.68291C10.8227 5.04792 10.9425 5.44409 10.9425 5.8722C10.9425 6.20927 10.8786 6.50399 10.7348 6.75799C10.599 7.01118 10.4393 7.23003 10.2476 7.41454C10.0639 7.59904 9.72045 7.90895 9.24121 8.34425C9.10543 8.46725 8.99361 8.57508 8.91374 8.66853C8.83387 8.76198 8.76997 8.84665 8.73003 8.92412C8.6901 9.0016 8.65815 9.07907 8.64217 9.15655C8.61821 9.23323 8.58626 9.36901 8.53834 9.5631C8.46645 9.97524 8.23482 10.1813 7.83546 10.1813C7.6278 10.1813 7.45208 10.1142 7.31629 9.97923C7.17252 9.84425 7.10064 9.64457 7.10064 9.37859C7.10064 9.04633 7.15655 8.75799 7.26038 8.51438C7.36422 8.27077 7.5 8.05671 7.66773 7.8722C7.83546 7.6877 8.06709 7.46885 8.35463 7.21565C8.61022 6.99361 8.79393 6.82588 8.90575 6.71326C9.01757 6.59984 9.11342 6.47444 9.19329 6.33546C9.27316 6.19728 9.3131 6.04633 9.3131 5.88419C9.3131 5.56709 9.19329 5.29952 8.95367 5.08147C8.72204 4.86422 8.41853 4.75479 8.04313 4.75479C7.60383 4.75479 7.28435 4.86422 7.07668 5.08466C6.877 5.30431 6.70128 5.62859 6.55751 6.05671C6.42173 6.50399 6.16613 6.72764 5.79073 6.72764C5.56709 6.72764 5.38339 6.64936 5.23163 6.49361C5.07189 6.33706 5 6.16693 5 5.98482Z" fill="#9395A4"/>
</svg>
