<svg width="24" height="24" viewBox="0 0 24 24" fill="none" xmlns="http://www.w3.org/2000/svg">
<g opacity="0.5">
<path fill-rule="evenodd" clip-rule="evenodd" d="M5.24609 5.24805C7.05273 3.44629 9.44531 2.45312 11.9941 2.45312C14.5527 2.45312 16.9453 3.44629 18.752 5.24805C22.4727 8.9707 22.4727 15.0283 18.752 18.75C16.9453 20.5537 14.543 21.5469 11.9941 21.5469C9.44531 21.5469 7.05273 20.5547 5.24609 18.752C3.43945 16.9492 2.45312 14.5518 2.45312 12C2.45312 9.44922 3.43945 7.05176 5.24609 5.24805ZM3.86914 20.1338C6.03711 22.3047 8.92773 23.5 11.9941 23.5C15.0703 23.5 17.9609 22.3037 20.1289 20.1318C24.6113 15.6475 24.6113 8.35156 20.1289 3.86719C17.9609 1.69629 15.0703 0.5 11.9941 0.5C8.92773 0.5 6.03711 1.69629 3.86914 3.86719C1.69141 6.03906 0.5 8.92773 0.5 12C0.5 15.0732 1.69141 17.9609 3.86914 20.1338ZM11.0957 17.2607C11.3106 17.4511 11.5742 17.5478 11.8672 17.5478C12.1504 17.5478 12.4043 17.4502 12.6289 17.2568C12.8438 17.0625 12.9512 16.7968 12.9512 16.457C12.9512 16.1513 12.8438 15.8955 12.6387 15.6865C12.4336 15.4785 12.1699 15.374 11.8672 15.374C11.5547 15.374 11.3008 15.4785 11.086 15.6865C10.8711 15.8955 10.7637 16.1513 10.7637 16.457C10.7637 16.8007 10.8711 17.0683 11.0957 17.2607ZM8.76173 8.18356C8.46876 8.65621 8.32227 9.12204 8.32227 9.582C8.32227 9.80465 8.41017 10.0127 8.60548 10.2041C8.79102 10.3945 9.01563 10.4902 9.28907 10.4902C9.74806 10.4902 10.0606 10.2168 10.2266 9.66989C10.4024 9.14645 10.6172 8.74996 10.8613 8.48141C11.1152 8.21188 11.5059 8.07809 12.043 8.07809C12.502 8.07809 12.8731 8.21188 13.1563 8.4775C13.4492 8.74411 13.5957 9.07125 13.5957 9.45895C13.5957 9.65719 13.5469 9.84176 13.4492 10.0107C13.3516 10.1806 13.2344 10.3339 13.0977 10.4726C12.9609 10.6103 12.7363 10.8154 12.4238 11.0869C12.0723 11.3964 11.7891 11.664 11.584 11.8896C11.3789 12.1152 11.2129 12.3769 11.0859 12.6748C10.959 12.9726 10.8906 13.3252 10.8906 13.7314C10.8906 14.0566 10.9785 14.3007 11.1543 14.4658C11.3203 14.6308 11.5352 14.7129 11.7891 14.7129C12.2774 14.7129 12.5606 14.4609 12.6484 13.957C12.6605 13.9082 12.6717 13.8625 12.6822 13.8197C12.7227 13.6545 12.7521 13.5344 12.7754 13.4599C12.7949 13.3652 12.834 13.2705 12.8828 13.1757C12.9316 13.081 13.0098 12.9775 13.1074 12.8632C13.2051 12.749 13.3418 12.6172 13.5078 12.4668C13.565 12.4148 13.6205 12.3644 13.6745 12.3154C14.1738 11.8621 14.5356 11.5336 14.7383 11.33C14.9727 11.1045 15.168 10.8369 15.334 10.5273C15.5098 10.2168 15.5879 9.85641 15.5879 9.4443C15.5879 8.92086 15.4414 8.43649 15.1484 7.9902C14.8555 7.54489 14.4356 7.19235 13.8984 6.93356C13.3613 6.67379 12.7461 6.54391 12.043 6.54391C11.291 6.54391 10.627 6.70016 10.0606 7.00973C9.49415 7.3193 9.06446 7.7109 8.76173 8.18356Z" fill="#9395A4"/>
</g>
</svg>
