<svg width="24" height="32" viewBox="0 0 24 32" fill="none" xmlns="http://www.w3.org/2000/svg">
<path d="M18.069 11.7594V5.63862C18.069 2.52966 15.3463 0 12.0001 0C8.65385 0 5.93109 2.52966 5.93109 5.63862V11.7594C2.94296 13.7357 0.965576 17.1222 0.965576 20.9655C0.965576 27.0499 5.91565 32 12.0001 32C18.0845 32 23.0345 27.0499 23.0345 20.9655C23.0345 17.1222 21.0572 13.7357 18.069 11.7594ZM7.03454 11.1211V5.63862C7.03454 3.13821 9.26185 1.10345 12.0001 1.10345C14.7383 1.10345 16.9656 3.13821 16.9656 5.63862V11.1217C16.8619 11.0692 16.7559 11.0229 16.6511 10.9738C16.4343 10.8723 16.2141 10.7774 15.9901 10.6897C15.8461 10.6334 15.7016 10.5804 15.5559 10.5302C15.4125 10.4811 15.2701 10.432 15.1245 10.389C14.8834 10.3172 14.6395 10.256 14.394 10.2008C14.2875 10.1771 14.1805 10.1545 14.0729 10.1335C13.7843 10.0778 13.4941 10.0326 13.2017 10C13.1355 9.99283 13.0693 9.98841 13.0031 9.98234C12.6693 9.9509 12.3355 9.93103 12.0001 9.93103C11.6646 9.93103 11.3308 9.9509 10.9981 9.98179C10.9319 9.98786 10.8652 9.99228 10.7995 9.99945C10.5071 10.032 10.2169 10.0772 9.92834 10.133C9.82075 10.1534 9.71371 10.1766 9.60723 10.2003C9.36171 10.2554 9.11785 10.3167 8.87675 10.3884C8.73109 10.4314 8.5882 10.4811 8.4453 10.5297C8.29964 10.5799 8.15454 10.6328 8.01109 10.6891C7.78654 10.7763 7.56696 10.8717 7.35013 10.9732C7.2442 11.0223 7.13827 11.0687 7.03454 11.1211ZM12.0001 30.8966C6.5242 30.8966 2.06902 26.4414 2.06902 20.9655C2.06902 17.3589 4.00833 14.2041 6.89275 12.4646C7.40033 12.1589 7.93109 11.9012 8.47785 11.6916C8.57495 11.6546 8.67261 11.6182 8.77082 11.584C8.92144 11.5316 9.07261 11.4814 9.22544 11.4361C9.41302 11.3815 9.60337 11.333 9.79537 11.2894C9.93551 11.2574 10.0762 11.2292 10.2174 11.2033C10.421 11.1663 10.6263 11.1332 10.8343 11.109C10.9281 11.0974 11.0224 11.0874 11.1167 11.0792C11.4086 11.0532 11.7021 11.0345 12.0001 11.0345C12.298 11.0345 12.5915 11.0532 12.8834 11.0792C12.9777 11.088 13.0715 11.0979 13.1659 11.109C13.3739 11.1332 13.5791 11.1663 13.7827 11.2033C13.9239 11.2292 14.0646 11.2574 14.2047 11.2894C14.3967 11.333 14.5871 11.3815 14.7747 11.4361C14.9275 11.4808 15.0787 11.5316 15.2293 11.584C15.3281 11.6182 15.4252 11.6546 15.5223 11.6916C16.069 11.9012 16.5998 12.1589 17.1074 12.4646C19.9918 14.2041 21.9311 17.3589 21.9311 20.9655C21.9311 26.4414 17.4759 30.8966 12.0001 30.8966Z" fill="#9395A4"/>
<path d="M18.6207 20.4138H16.933C16.8265 19.4577 16.4475 18.5843 15.8759 17.8698L17.0715 16.6742C17.2872 16.4585 17.2872 16.1098 17.0715 15.8941C16.8558 15.6783 16.5071 15.6783 16.2914 15.8941L15.0958 17.0897C14.3813 16.5181 13.5079 16.139 12.5518 16.0326V14.3448C12.5518 14.0397 12.3052 13.7931 12 13.7931C11.6949 13.7931 11.4483 14.0397 11.4483 14.3448V16.0326C10.4922 16.139 9.61881 16.5181 8.90433 17.0897L7.70874 15.8941C7.49302 15.6783 7.14433 15.6783 6.9286 15.8941C6.71288 16.1098 6.71288 16.4585 6.9286 16.6742L8.12419 17.8698C7.5526 18.5843 7.17357 19.4577 7.06708 20.4138H5.37936C5.07426 20.4138 4.82764 20.6604 4.82764 20.9655C4.82764 21.2706 5.07426 21.5172 5.37936 21.5172H7.06708C7.17357 22.4734 7.5526 23.3468 8.12419 24.0612L6.9286 25.2568C6.71288 25.4726 6.71288 25.8212 6.9286 26.037C7.03619 26.1446 7.17743 26.1986 7.31867 26.1986C7.45991 26.1986 7.60115 26.1446 7.70874 26.037L8.90433 24.8414C9.61881 25.413 10.4922 25.792 11.4483 25.8985V27.5862C11.4483 27.8913 11.6949 28.1379 12 28.1379C12.3052 28.1379 12.5518 27.8913 12.5518 27.5862V25.8985C13.5079 25.792 14.3813 25.413 15.0958 24.8414L16.2914 26.037C16.3989 26.1446 16.5402 26.1986 16.6814 26.1986C16.8227 26.1986 16.9639 26.1446 17.0715 26.037C17.2872 25.8212 17.2872 25.4726 17.0715 25.2568L15.8759 24.0612C16.4475 23.3468 16.8265 22.4734 16.933 21.5172H18.6207C18.9258 21.5172 19.1725 21.2706 19.1725 20.9655C19.1725 20.6604 18.9258 20.4138 18.6207 20.4138ZM12 24.8276C9.87095 24.8276 8.13798 23.0946 8.13798 20.9655C8.13798 18.8364 9.87095 17.1035 12 17.1035C14.1292 17.1035 15.8621 18.8364 15.8621 20.9655C15.8621 23.0946 14.1292 24.8276 12 24.8276Z" fill="#9395A4"/>
</svg>
