<svg width="13" height="12" viewBox="0 0 13 12" fill="none" xmlns="http://www.w3.org/2000/svg">
<path fill-rule="evenodd" clip-rule="evenodd" d="M1.60913 1.60913C-0.536377 3.75464 -0.536377 7.2332 1.60913 9.37871C3.65205 11.4216 6.90359 11.5193 9.06209 9.67175L11.2039 11.8135C11.7693 12.379 12.6175 11.5308 12.0521 10.9654L12.0522 10.9653L9.88443 8.79757C11.5084 6.64501 11.3398 3.57021 9.37871 1.60913C7.2332 -0.536379 3.75464 -0.536379 1.60913 1.60913ZM2.45738 2.45734C4.13444 0.780279 6.85348 0.780279 8.53054 2.45734C10.2076 4.13439 10.2076 6.85344 8.53054 8.5305C6.85348 10.2076 4.13444 10.2076 2.45738 8.5305C0.780322 6.85344 0.780322 4.13439 2.45738 2.45734Z" fill="black"/>
</svg>
