<svg width="24" height="24" viewBox="0 0 24 24" fill="none" xmlns="http://www.w3.org/2000/svg">
<path fill-rule="evenodd" clip-rule="evenodd" d="M19 3H5C3.9 3 3 3.9 3 5V19C3 20.1 3.9 21 5 21H19C20.1 21 21 20.1 21 19V5C21 3.9 20.1 3 19 3ZM10.356 16.6577C10.1571 16.8489 9.84285 16.8489 9.64405 16.6577L5.72744 12.8918C5.33038 12.51 5.33038 11.8746 5.72744 11.4928C6.10307 11.1317 6.69692 11.1317 7.07256 11.4928L9.96308 14.2722C9.9837 14.292 10.0163 14.292 10.0369 14.2722L16.9274 7.64669C17.3031 7.2855 17.8969 7.2855 18.2726 7.64669C18.6696 8.02848 18.6696 8.66383 18.2726 9.04562L10.356 16.6577Z" fill="#65B767"/>
</svg>
