<?xml version="1.0" encoding="utf-8"?>
<!-- Generator: Adobe Illustrator 24.0.2, SVG Export Plug-In . SVG Version: 6.00 Build 0)  -->
<svg version="1.1" id="Слой_1" xmlns="http://www.w3.org/2000/svg" xmlns:xlink="http://www.w3.org/1999/xlink" x="0px" y="0px"
	 viewBox="0 0 24 24" style="enable-background:new 0 0 24 24;" xml:space="preserve">
<style type="text/css">
	.st0{fill:#65B767;}
</style>
<path class="st0" d="M20,8h-1V2c0-0.6-0.4-1-1-1H6C5.4,1,5,1.4,5,2v6H4c-1.7,0-3,1.3-3,3v5c0,1.7,1.3,3,3,3h1v3c0,0.6,0.4,1,1,1h12
	c0.6,0,1-0.4,1-1v-3h1c1.7,0,3-1.3,3-3v-5C23,9.3,21.7,8,20,8z M7,3h10v5H7V3z M17,21H7v-6h10V21z M21,16c0,0.6-0.4,1-1,1h-1v-3
	c0-0.6-0.4-1-1-1H6c-0.6,0-1,0.4-1,1v3H4c-0.6,0-1-0.4-1-1v-5c0-0.6,0.4-1,1-1h16c0.6,0,1,0.4,1,1V16z"/>
</svg>
