<svg width="86" height="62" viewBox="0 0 86 62" fill="none" xmlns="http://www.w3.org/2000/svg">
<mask id="mask0" mask-type="alpha" maskUnits="userSpaceOnUse" x="0" y="0" width="86" height="62">
<rect width="86" height="62" rx="6" fill="#353F48"/>
</mask>
<g mask="url(#mask0)">
<path fill-rule="evenodd" clip-rule="evenodd" d="M76.0688 28.5569L76.9512 25.734L74.0334 25.8264C73.7871 25.8264 71.9954 25.7752 70.2566 24.5146C70.3877 24.5263 70.5163 24.5448 70.6499 24.5448C72.4383 24.5448 74.1712 23.4683 74.8637 21.9261L76.1184 19.1427C74.5443 19.1638 73.1056 18.9646 73.1056 18.9646C73.0938 18.9629 71.9593 18.8158 70.6482 17.4762C69.7078 16.5165 68.5439 16.0072 67.2841 16.0072C66.732 16.0072 66.2387 16.1081 65.8143 16.2417C65.8807 16.0165 65.942 15.7879 65.9798 15.5517C66.3798 12.9465 64.7049 10.9598 64.7041 10.9606L62.509 8.24362L61.1484 11.4363C61.1442 11.4455 60.7996 12.1943 60.1861 12.5599C60.0012 11.6203 59.5449 10.5665 58.5717 9.558C56.7354 7.65786 54.5017 7.3738 53.3318 7.3738C52.7906 7.3738 52.4032 7.43263 52.3099 7.4486L49.6618 7.96881C49.8148 7.37801 50.1408 6.346 50.735 5.41904L52.1964 3.1424L48.5189 3.56008L47.3473 1.0725L45.0791 2.24149L42.9815 0.169067L40.8897 2.24149L38.6156 1.0725L37.4466 3.56008L33.7707 3.14072L35.2338 5.41904C35.8297 6.346 36.1541 7.37465 36.3053 7.9646L33.7783 7.46625L33.6917 7.45196C33.5648 7.43263 33.1807 7.3738 32.6362 7.3738C31.4672 7.3738 29.2334 7.65786 27.4013 9.55632C26.4265 10.5648 25.9693 11.6203 25.7836 12.5599C25.1734 12.1977 24.8322 11.4615 24.8322 11.4615L23.4691 8.25034L21.2404 10.9842C20.9672 11.3371 19.6251 13.2045 19.9898 15.5542C20.0268 15.7887 20.089 16.0165 20.1546 16.2417C19.7318 16.1064 19.2385 16.0072 18.6872 16.0072C17.4258 16.0072 16.2618 16.5165 15.3198 17.4762C14.0121 18.8108 12.8851 18.9621 12.8952 18.9621C12.8952 18.9621 11.7018 19.1764 9.8563 19.1427L11.1043 21.9261C11.7993 23.4683 13.5322 24.5448 15.3181 24.5448C15.4525 24.5448 15.5811 24.5263 15.7131 24.5146C13.9785 25.7752 12.1867 25.8264 11.9708 25.8281L9 25.734L9.9 28.5561C10.3538 30.0108 11.8666 32.4194 14.7642 32.679C14.4491 34.0002 13.7499 35.4818 12.2153 36.1196L10.0017 37.0306L11.2094 39.1333C11.8892 40.2662 13.4902 41.5932 15.7668 41.5932C16.2585 41.5915 16.7341 41.5411 17.193 41.4444C17.3098 41.9613 17.456 42.4806 17.6292 42.9949C18.3065 45.0144 17.7225 46.4212 17.7166 46.4364L16.6232 48.7265L19.062 49.3685C19.0931 49.3778 19.8302 49.5803 20.7521 49.5803C21.1706 49.5803 21.5715 49.5374 21.9455 49.4475C22.2287 49.382 22.5026 49.2937 22.764 49.187C23.08 49.7526 23.4632 50.2711 23.9103 50.7325C25.4734 52.3377 27.6887 53.1495 30.4948 53.1495H30.5032L32.5059 53.1234L28.3686 54.8446L31.51 56.364C32.6521 56.9195 34.0052 57.5775 35.3834 58.0809L34.991 59.1541L36.0742 59.6483C36.17 59.692 38.2534 60.6231 41.7142 60.8215C41.7142 60.8215 42.5495 60.8601 43.01 60.8601C43.4706 60.8601 44.2959 60.8181 44.2959 60.8181C47.7348 60.6147 49.8013 59.692 49.898 59.6483L50.9829 59.1533L50.5871 58.0784C52.004 57.5599 53.4083 56.8758 54.5025 56.3405L57.5859 54.8437L53.4612 53.1234L55.4723 53.1495C58.2818 53.1495 60.4979 52.3368 62.0585 50.7308C62.5039 50.272 62.8863 49.7551 63.204 49.187C63.467 49.2937 63.741 49.382 64.0251 49.4492C64.3982 49.5374 64.7991 49.5803 65.2167 49.5803C66.1235 49.5803 66.869 49.3803 66.8883 49.3736L69.3389 48.7265L68.2707 46.4792C68.2464 46.4212 67.6615 45.0144 68.3397 42.9941C68.5119 42.4789 68.6573 41.9604 68.7758 41.4444C69.2355 41.5411 69.7154 41.5915 70.2112 41.5932C73.1123 41.5932 74.5031 39.5527 74.7721 39.1089L75.9671 37.029L73.7543 36.1205C72.2164 35.4818 71.5189 34.001 71.2063 32.6816C74.0653 32.432 75.5999 30.0209 76.0688 28.5569Z" fill="#FFFFFE"/>
<path fill-rule="evenodd" clip-rule="evenodd" d="M42.9817 8.81396C40.6386 8.81649 38.8805 9.58461 38.499 10.488L42.9817 12.2579L47.466 10.488C47.087 9.58461 45.3289 8.81649 42.9817 8.81396Z" fill="#FFFFFE"/>
<path fill-rule="evenodd" clip-rule="evenodd" d="M43.0288 55.6506H43.0246H42.9859H42.9422H42.9389C41.5186 55.6607 39.5621 55.369 38.6209 55.0942L37.4872 58.1609C38.2343 58.4273 40.7673 58.9374 42.9859 58.9374C45.2012 58.9374 47.7342 58.4273 48.4805 58.1609L47.3484 55.0942C46.403 55.369 44.4482 55.6607 43.0288 55.6506Z" fill="#FFFFFE"/>
<path fill-rule="evenodd" clip-rule="evenodd" d="M51.6075 52.5991C50.7637 53.0756 48.8796 53.7942 47.7845 54.1261L48.7048 56.6599C50.399 56.1969 51.7991 55.6565 52.953 55.0766L51.0444 54.4421L51.6075 52.5991Z" fill="#FFFFFE"/>
<path fill-rule="evenodd" clip-rule="evenodd" d="M34.3601 52.5991L34.9248 54.4421L33.0146 55.0766C34.1677 55.6565 35.5728 56.1969 37.262 56.6599L38.1831 54.1261C37.0897 53.7942 35.203 53.0756 34.3601 52.5991Z" fill="#FFFFFE"/>
<path fill-rule="evenodd" clip-rule="evenodd" d="M42.9818 5.88156C44.7491 5.88156 46.4803 6.30428 47.8141 7.04636C47.9351 6.63792 48.1065 6.14293 48.3368 5.62272L47.8325 5.68323L47.3039 5.7387L47.0804 5.25715L46.4064 3.83351L45.1777 4.47305L44.6995 4.71677L44.3172 4.34027L42.9818 3.01917L41.6497 4.34027L41.2682 4.71677L40.79 4.47305L39.5555 3.83351L38.8899 5.25715L38.6621 5.7387L38.1343 5.68323L37.6318 5.62272C37.8629 6.14293 38.0318 6.63792 38.1545 7.04636C39.4924 6.30428 41.2228 5.88156 42.9818 5.88156Z" fill="#FFFFFE"/>
<path fill-rule="evenodd" clip-rule="evenodd" d="M69.9558 22.3333C70.1853 22.4132 70.4181 22.4476 70.6492 22.4476C71.6492 22.4476 72.6149 21.8014 72.9468 21.0626C72.9468 21.0626 71.1156 20.9509 69.144 18.9507C68.5171 18.3028 67.8532 18.1086 67.2834 18.1086C66.3984 18.1086 65.7345 18.5751 65.7345 18.5751C68.1154 19.8424 68.6003 21.8753 69.9558 22.3333Z" fill="#FFFFFE"/>
<path fill-rule="evenodd" clip-rule="evenodd" d="M15.317 22.4474C15.5482 22.4474 15.7818 22.4129 16.0062 22.3331C17.3651 21.8751 17.855 19.8421 20.2325 18.5765C20.2325 18.5765 19.5669 18.1084 18.687 18.1084C18.1139 18.1084 17.4508 18.3025 16.8214 18.9513C14.8523 20.9515 13.0211 21.0632 13.0211 21.0632C13.3505 21.8003 14.3186 22.4474 15.317 22.4474Z" fill="#FFFFFE"/>
<path fill-rule="evenodd" clip-rule="evenodd" d="M69.2378 36.9312C67.3965 36.0236 66.2334 33.6133 65.9519 32.746C65.646 37.5245 63.3139 40.8399 60.5868 44.0334C59.1715 45.689 58.6782 47.2975 58.6782 47.2975C58.6782 47.2975 58.9513 45.4747 60.1741 43.9906C62.7189 40.9349 65.1375 37.1279 65.3165 32.7284C65.4401 29.6567 64.6509 27.1666 63.4189 25.1135C64.108 27.2507 64.0097 29.8685 61.67 32.3124C61.67 32.3124 66.33 26.7279 59.8144 21.004C57.2075 18.8248 54.3535 17.4794 52.8853 16.5264C58.1916 18.2576 60.7834 16.3515 60.7834 16.3515C59.0892 17.8214 56.8949 17.7954 55.5343 17.5844C55.9041 17.7634 56.2873 17.9508 56.6999 18.1735C61.175 20.6031 65.1955 24.6026 65.8813 30.1408V30.0979C66.9217 35.5362 69.2378 36.9312 69.2378 36.9312ZM70.6001 30.5955C70.6421 30.598 70.6766 30.598 70.7194 30.598C73.2129 30.598 74.0584 27.9272 74.0584 27.9272H74.0096C73.5516 27.9272 69.8438 27.8188 67.2225 24.4874C65.4972 22.2965 64.0828 20.3703 61.2902 19.6131L61.0154 19.5636L60.9557 19.2845C60.8784 18.8576 61.1717 18.4584 61.8339 18.0265C65.6888 15.5036 63.071 12.284 63.071 12.284C63.071 12.284 61.9709 14.8573 59.5085 14.8573C59.4489 14.8573 59.3867 14.854 59.3253 14.854C59.0463 14.8397 58.7757 14.8296 58.5043 14.7716L58.0504 14.6834C58.0504 14.6834 58.753 12.774 57.0579 11.0209C55.7814 9.69727 54.2291 9.47205 53.3324 9.47205C52.8803 9.47205 52.5937 9.53087 52.5937 9.53087C53.4451 10.6427 54.0602 12.4891 53.0778 13.6287C52.2282 14.6086 50.1532 14.6556 50.1532 16.1137C50.1532 16.7331 50.7314 17.4542 51.7676 18.1021C54.8863 20.0661 57.9815 22.6722 59.2707 26.164C60.8784 30.5198 59.0656 33.4125 56.4797 35.0697C56.4797 35.0697 57.2916 35.8177 58.4673 35.9127C58.7068 35.9354 58.9404 35.9463 59.1589 35.9463C61.6423 35.9463 62.9273 34.7815 62.9273 34.7815C62.9273 34.7815 62.7147 36.3909 61.423 37.8851C60.2296 39.2642 58.6656 40.0777 56.2772 40.1105C56.2772 40.1105 56.2024 41.2198 57.2596 42.1778C57.9361 42.7838 59.4976 42.9796 59.4976 42.9796C59.4976 42.9796 56.573 43.5729 56.2495 47.8934C56.0738 50.2347 55.4755 51.0491 55.4755 51.0491H55.5284C62.3171 51.0491 62.1432 45.226 62.1432 45.226C62.1432 45.226 62.6155 46.9505 64.5089 47.4001C64.7383 47.4597 64.982 47.4833 65.2148 47.4833C65.8241 47.4833 66.3544 47.3396 66.3544 47.3396C66.3544 47.3396 65.3619 45.2478 66.346 42.3215C67.1629 39.8936 67.0309 38.0952 67.0309 38.0952C67.0309 38.0952 67.9445 39.4776 70.2127 39.4902H70.2362C72.1246 39.4902 72.9465 38.059 72.9465 38.059C68.421 36.1791 68.8672 30.1164 68.8672 30.1164C68.8672 30.1164 69.4555 30.5543 70.6001 30.5955Z" fill="#FFFFFE"/>
<path fill-rule="evenodd" clip-rule="evenodd" d="M25.3791 44.0336C22.6529 40.84 20.3208 37.5247 20.0123 32.7453C19.7308 33.6135 18.5711 36.0237 16.7306 36.9314C16.7306 36.9314 19.0442 35.5363 20.0838 30.0981V30.1401C20.7721 24.6035 24.7917 20.6032 29.2676 18.1737C29.6778 17.9509 30.0643 17.7635 30.4324 17.5837C29.0718 17.7955 26.8776 17.8207 25.1842 16.3525C25.1842 16.3525 27.7759 18.2577 33.0805 16.5265C31.6124 17.4795 28.76 18.825 26.154 21.0033C19.6367 26.7281 24.2984 32.3125 24.2984 32.3125C21.9537 29.8686 21.8604 27.2516 22.5495 25.1137C21.3141 27.1668 20.525 29.6569 20.6527 32.7277C20.8309 37.128 23.2479 40.9342 25.7876 43.9915C27.0171 45.4748 27.2927 47.2977 27.2927 47.2977C27.2927 47.2977 26.7935 45.6891 25.3791 44.0336ZM26.47 42.9797C26.47 42.9797 28.0323 42.7839 28.7105 42.178C29.766 41.2182 29.6904 40.1106 29.6904 40.1106C27.302 40.0778 25.7388 39.2643 24.5387 37.886C23.2546 36.391 23.042 34.7816 23.042 34.7816C23.042 34.7816 24.3253 35.9464 26.8061 35.9464C27.0288 35.9464 27.2608 35.9355 27.5003 35.9128C28.6777 35.8178 29.4912 35.0707 29.4912 35.0707C26.9019 33.4118 25.0892 30.5208 26.696 26.1642C27.9844 22.6731 31.0787 20.0654 34.1983 18.1022C35.2345 17.4543 35.8118 16.7332 35.8118 16.1147C35.8118 14.6549 33.7394 14.6078 32.8906 13.6288C31.9082 12.4892 32.5234 10.6428 33.373 9.53015C33.373 9.53015 33.0898 9.47217 32.6351 9.47217C31.7393 9.47217 30.187 9.69739 28.9105 11.021C27.2129 12.7733 27.9171 14.6835 27.9171 14.6835L27.4633 14.7726C27.1919 14.8297 26.9187 14.8398 26.6414 14.8549C26.5775 14.8549 26.5212 14.8574 26.4616 14.8574C23.9925 14.8574 22.8983 12.2841 22.8983 12.2841C22.8983 12.2841 20.2813 15.5029 24.1345 18.0266C24.7976 18.4569 25.0892 18.8577 25.0119 19.2847L24.9522 19.5637L24.6723 19.6124C21.8839 20.3713 20.4678 22.2975 18.7417 24.4876C16.1221 27.8189 12.4177 27.9265 11.9571 27.9265H11.9067C11.9067 27.9265 12.7521 30.5981 15.2473 30.5981C15.2868 30.5981 15.3246 30.5981 15.3658 30.5956C16.5138 30.5544 17.1012 30.1157 17.1012 30.1157C17.1012 30.1157 17.5449 36.1792 13.0211 38.0592C13.0211 38.0592 13.8447 39.4912 15.7322 39.4912H15.7549C18.0248 39.4778 18.9375 38.0953 18.9375 38.0953C18.9375 38.0953 18.8055 39.8938 19.619 42.3217C20.6031 45.2488 19.6157 47.3405 19.6157 47.3405C19.6157 47.3405 20.1434 47.4826 20.7519 47.4826C20.9889 47.4826 21.2309 47.4599 21.457 47.4002C23.3496 46.9506 23.8227 45.2261 23.8227 45.2261C23.8227 45.2261 23.6496 51.0492 30.4392 51.0492H30.4879C30.4879 51.0492 29.8946 50.2349 29.7198 47.8935C29.3971 43.573 26.47 42.9797 26.47 42.9797Z" fill="#FFFFFE"/>
<path fill-rule="evenodd" clip-rule="evenodd" d="M41.4502 21.5241H43.052H44.6505V22.6233C44.274 22.162 43.5412 22.2552 43.5412 22.2552V23.8386C43.5412 23.8386 43.5689 24.6176 43.842 24.9546H43.052H42.2579C42.5352 24.6176 42.5604 23.8386 42.5604 23.8386V22.2552C42.5604 22.2552 41.8293 22.162 41.4502 22.6233V21.5241ZM37.9626 21.6888C38.0744 21.8082 38.1836 21.9384 38.2895 22.0678C38.3147 22.0998 38.3374 22.1267 38.3626 22.162C38.4601 22.2905 38.5576 22.4284 38.6534 22.5696C38.6744 22.5964 38.6946 22.6301 38.7173 22.662C38.8307 22.8343 38.9383 23.0124 39.045 23.1948C40.0249 24.8857 41.5906 25.8959 42.9815 25.8984C44.374 25.8959 45.9388 24.8857 46.9212 23.1948C47.0297 23.0074 47.1397 22.825 47.2532 22.6553C47.27 22.6301 47.2877 22.6049 47.3036 22.5805C47.4003 22.4343 47.5011 22.2931 47.6078 22.1561C47.6297 22.1267 47.6515 22.0998 47.6717 22.0737C47.781 21.9384 47.8936 21.8073 48.0087 21.6846C48.028 21.6653 48.0449 21.6468 48.0633 21.6308C48.5617 21.1207 49.1567 20.7316 49.9349 20.5156L49.5887 20.3148H49.5693L48.1911 19.5139L46.775 18.7029L42.9924 20.7619L42.9815 20.7535L42.9747 20.7619L39.1913 18.7029L37.776 19.5139L36.3952 20.3148H36.3793L36.0297 20.5156C36.8087 20.7316 37.4012 21.1165 37.9021 21.6275C37.9239 21.6468 37.9391 21.6703 37.9626 21.6888Z" fill="#FFFFFE"/>
<path fill-rule="evenodd" clip-rule="evenodd" d="M41.7766 14.5457V15.5785L41.5783 15.4878C41.569 15.4802 41.2774 15.4138 40.7698 15.0129C39.9319 14.3616 39.9151 13.7624 39.9151 13.7624L41.7766 14.5457ZM42.6548 19.3948V12.9649L38.5621 11.5774L39.6412 17.8073L42.6548 19.3948Z" fill="#FFFFFE"/>
<path fill-rule="evenodd" clip-rule="evenodd" d="M44.1904 14.5457L46.0518 13.7624C46.0518 13.7624 46.0359 14.3616 45.1946 15.0129C44.6896 15.4138 44.3971 15.4802 44.3879 15.4878L44.1904 15.5785V14.5457ZM46.3242 17.8073L47.3998 11.5774L43.3105 12.9649V19.3948L46.3242 17.8073Z" fill="#FFFFFE"/>
<path fill-rule="evenodd" clip-rule="evenodd" d="M36.8676 34.2976C37.2651 34.4421 37.7492 34.4724 37.9971 34.4724C38.0055 34.4421 38.0198 34.4043 38.0315 34.3581C38.0534 34.285 38.0744 34.2119 38.0895 34.1329C38.1584 33.7757 38.1837 33.3732 38.1887 33.1135C38.0223 33.0076 37.7845 32.8235 37.6517 32.5454C37.5004 32.226 37.2828 32.0764 36.9668 32.0764C36.555 32.0764 36.1138 32.3243 35.9238 32.4412C35.7734 33.3303 36.4281 34.1362 36.8676 34.2976Z" fill="#FFFFFE"/>
<path fill-rule="evenodd" clip-rule="evenodd" d="M45.9191 30.8875C45.1594 31.7144 43.671 33.1532 43.5996 33.2246L43.5097 33.3162L38.8085 33.2414C38.8051 33.707 38.7295 34.1028 38.6564 34.3936C38.6446 34.4415 38.6312 34.4919 38.6185 34.5432L44.2097 35.5483C44.7921 35.1415 46.3931 33.9717 47.015 33.5137C46.5628 32.854 46.52 32.0699 46.6217 31.5186C46.325 31.3295 46.0989 31.1152 45.9191 30.8875Z" fill="#FFFFFE"/>
<path fill-rule="evenodd" clip-rule="evenodd" d="M46.5562 25.2338C45.4729 26.3078 44.4342 26.7061 43.5064 26.7977C43.3375 26.8154 43.1677 26.8272 42.9946 26.8272H42.9811H42.9719C42.7979 26.8272 42.6273 26.8154 42.4592 26.7977C42.297 26.7843 42.1273 26.7574 41.9567 26.7196C41.8962 26.9616 41.8189 27.465 42.039 27.9457C42.2357 28.3794 42.6349 28.7021 43.2173 28.9172L43.4131 28.9937L43.4156 29.2046C43.4156 29.2668 43.4627 30.6358 44.9527 31.0149C45.1956 30.7644 45.4166 30.5375 45.5805 30.3476C45.2763 29.6307 45.4359 28.8987 45.878 28.5407C45.8587 28.6164 45.6645 30.4115 47.1033 31.0787L47.3403 31.1913L47.2697 31.4443C47.2462 31.5191 46.7663 33.2571 48.5084 33.9025L48.8177 34.0201L48.6807 34.3193C48.6505 34.3857 47.9672 35.9615 49.5766 36.8565H53.0659V34.0865C51.8246 33.9353 51.2994 32.9377 51.1641 32.2318C50.5867 32.1326 50.1405 31.883 49.8337 31.4779C49.1026 30.5131 49.7321 29.6307 49.7405 29.5837C49.7388 29.5912 49.7405 30.5308 50.3203 31.1107C50.6077 31.3897 50.9481 31.6073 51.4624 31.6561L51.7171 31.6788L51.7389 31.9385C51.7431 31.9931 51.8826 33.2663 53.0659 33.4655L53.0626 27.8062C53.0626 26.9297 53.318 26.0481 53.6265 25.2338H46.5562Z" fill="#FFFFFE"/>
<path fill-rule="evenodd" clip-rule="evenodd" d="M37.165 27.827L37.0701 31.4298L37.4802 31.4919L38.4811 28.0345L37.9735 26.9714L37.165 27.827Z" fill="#FFFFFE"/>
<path fill-rule="evenodd" clip-rule="evenodd" d="M39.3344 41.1678C39.2184 41.1644 39.1327 41.0652 39.1394 40.9484C39.1495 40.8358 39.2445 40.7476 39.3596 40.7585C39.4764 40.7627 39.5596 40.866 39.5554 40.9753C39.5445 41.0904 39.447 41.177 39.3344 41.1678ZM48.2082 44.3571C48.2384 44.3571 48.2737 44.3613 48.3065 44.3697C48.9301 44.547 49.0881 46.7934 50.1806 46.9951C50.2881 47.0169 50.3865 47.0236 50.473 47.0236C50.7899 47.0236 50.9781 46.8892 51.1807 46.648C51.1807 46.648 50.631 45.7849 50.2201 45.2017C49.673 44.4377 49.2494 43.5158 48.2317 43.5158C48.2082 43.5158 48.1779 43.5158 48.1535 43.5192C47.8182 43.536 47.6115 43.6999 47.6115 43.6999C47.1997 43.441 46.8148 43.3528 46.4685 43.3528C45.8315 43.3528 45.3357 43.6452 45.0878 43.6452H45.0785L42.8061 43.4209C42.4514 43.3872 42.1699 43.0292 42.0691 42.8897C42.0438 42.8511 42.0304 42.8284 42.0304 42.8284C42.0304 42.7662 42.0304 42.7032 42.0262 42.6477C41.9497 40.7887 40.511 39.9946 39.9991 39.9819C39.9991 39.9819 40.0597 39.6281 39.921 39.4937L39.4193 40.1013L37.7755 39.2769L38.9487 40.6467L37.9553 41.7619C37.8301 41.8888 37.846 42.0603 37.899 42.1334L38.3276 42.5132L38.8713 42.1821C38.8982 42.1628 38.9487 42.1561 39.0083 42.1561C39.1588 42.1561 39.3848 42.1956 39.5874 42.1956C39.8101 42.1956 40.0017 42.1477 40.0244 41.9392C39.9563 42.6284 39.3167 43.8251 39.7369 44.7663L40.0479 45.4765L38.0393 45.1865L37.0989 46.7749C36.809 47.3035 36.7636 47.8741 37.0426 48.1868L37.3939 48.6255C37.3939 48.6255 37.8872 48.1036 37.9982 47.759L37.8385 47.5834C37.704 47.4354 37.7099 47.3035 37.7931 47.1438L38.3822 46.1664L40.7538 46.7253L40.879 46.5118C41.0404 46.2438 41.2715 46.1648 41.5253 46.1648C41.6312 46.1648 41.7371 46.1774 41.8489 46.1942C42.2892 46.2816 43.0137 46.3984 43.7381 46.3984C44.5323 46.3984 45.3214 46.2572 45.7416 45.7849C46.6013 47.0581 48.3409 47.2606 48.204 47.9077L47.7459 50.0886C48.0485 50.076 48.3409 50.0558 48.6183 50.0171L49.0544 47.7481C49.1023 47.501 49.1477 47.1699 49.1477 47.1699C48.9805 46.9976 48.5737 46.6396 48.3443 46.2001C48.0376 45.6109 48.204 45.3025 47.9182 44.5352C47.9182 44.5352 48.0065 44.3571 48.2082 44.3571Z" fill="#FFFFFE"/>
<path fill-rule="evenodd" clip-rule="evenodd" d="M36.0969 46.4208C36.0969 46.4208 36.8835 46.0965 36.9533 45.8679L36.8483 45.604C36.7735 45.4334 36.7844 45.2485 36.9281 45.1476L37.7761 44.561L39.193 44.8333C39.193 44.8333 38.9366 44.5123 38.9619 44.0837L37.6088 43.7971L36.3331 44.5745C35.786 44.9829 35.7465 45.6519 35.9272 46.0494L36.0969 46.4208Z" fill="#FFFFFE"/>
<path fill-rule="evenodd" clip-rule="evenodd" d="M46.1226 50.1175C46.3756 50.1066 46.6571 50.1032 46.9639 50.1032C46.9639 50.1032 47.6933 47.9695 47.7345 47.9022C47.3261 47.7215 46.4764 47.2711 46.1487 47.0652C46.3664 47.3896 46.8916 47.7585 46.7882 48.0443L46.1226 50.1175Z" fill="#FFFFFE"/>
<path fill-rule="evenodd" clip-rule="evenodd" d="M53.0655 37.4672H32.9027V45.0509C32.9027 48.1537 35.1474 50.095 38.4594 50.095C41.2268 50.095 41.9571 50.2026 42.9858 51.2245C43.6951 50.516 44.2817 50.253 45.4868 50.1547L45.5145 50.0362L46.1507 48.0722C46.1154 48.0276 45.0758 46.8477 45.0758 46.8477C44.664 46.9847 44.3178 47.0074 43.7371 47.0074C43.1404 47.0074 42.4672 46.9385 41.7361 46.7998C41.6621 46.7838 41.5932 46.7763 41.5252 46.7763C41.4352 46.7763 41.4293 46.7838 41.4058 46.8284L41.2798 47.0368L41.0495 47.4183L40.6133 47.3183L38.6779 46.862L38.4132 47.2998L38.4527 47.3469L38.688 47.6057L38.5829 47.9444C38.4409 48.3856 37.9787 48.9025 37.8383 49.0445L37.3551 49.5639L36.9139 49.0067L36.5828 48.5915C36.2348 48.2016 36.1542 47.6057 36.35 46.9805C36.3458 46.9847 36.3391 46.988 36.3307 46.9897L35.7852 47.2149L35.5398 46.6813L35.3676 46.304C35.0709 45.6384 35.1801 44.6652 35.9802 44.0769L37.5375 43.1978L39.0191 43.4895C39.0552 43.3474 39.1082 42.8382 39.151 42.7079C39.1216 42.7045 39.0956 42.6986 39.0661 42.6986L38.2123 43.0172L37.3879 42.449C37.3879 42.449 37.066 42.1389 37.3585 41.828L38.1552 40.6203L36.134 38.0832L39.2401 39.3589L39.4468 39.1026L39.8662 38.6017L40.3419 39.0538C40.4763 39.1833 40.5537 39.3429 40.5915 39.5034C41.447 39.8362 42.9816 40.8195 43.1169 42.4188L42.637 42.6104V42.6222C42.7471 42.7524 42.8379 42.8062 42.8664 42.8104L45.0834 43.0289C45.1405 43.0188 45.2095 42.9945 45.2885 42.9709C45.5641 42.8768 45.9767 42.7415 46.4684 42.7415C46.8676 42.7415 47.2533 42.8331 47.6256 43.0062C47.7618 42.955 47.9298 42.9171 48.1248 42.9045L48.2315 42.902C49.4182 42.902 50.0098 43.7878 50.4821 44.4963C50.562 44.619 50.6401 44.7341 50.7225 44.8484C51.136 45.4333 51.678 46.2888 51.6999 46.3258L51.9444 46.7082L51.6452 47.0561C51.415 47.3234 51.0679 47.636 50.4737 47.636C50.351 47.636 50.2174 47.6225 50.072 47.5948C49.9459 47.5704 49.83 47.5335 49.7199 47.4872C49.7031 47.6041 49.6779 47.7436 49.6568 47.8637L49.2677 49.8925C51.5931 49.3201 53.0697 47.5654 53.0697 45.0509L53.0655 37.4672Z" fill="#FFE52B"/>
<path fill-rule="evenodd" clip-rule="evenodd" d="M32.9027 36.8566H48.5854C47.8013 36.0473 47.813 35.0229 48.0122 34.3573C47.7845 34.248 47.5962 34.1177 47.4281 33.9724C46.8146 34.4245 44.9447 35.7868 44.4556 36.1288L44.3506 36.1986L38.1963 35.0867H38.0711C37.9232 35.0867 37.7081 35.0808 37.4711 35.0523C37.4047 35.3304 37.1652 35.5195 36.8904 35.5195C36.8593 35.5195 36.8248 35.517 36.792 35.5103C36.6324 35.4825 36.492 35.4019 36.3987 35.2666C36.3029 35.1338 36.2651 34.9775 36.2912 34.8144L36.3139 34.6816C35.6802 34.2354 35.0936 33.2353 35.3533 32.1823L35.3785 32.0722L35.4684 32.0075C35.481 31.9983 35.5869 31.9251 35.7466 31.8352L35.2995 31.7663C35.1323 31.7369 35.0196 31.5814 35.0457 31.415C35.0743 31.2486 35.2323 31.1293 35.3961 31.1612L36.4618 31.3293L36.5593 27.5778L38.1442 25.9012L39.1342 27.9837L38.0896 31.5923L39.0309 31.7411C39.1973 31.7671 39.3099 31.9226 39.2847 32.0932C39.2603 32.2445 39.1309 32.3462 38.9838 32.3462C38.967 32.3462 38.951 32.3462 38.9342 32.3445L38.1695 32.221C38.1795 32.2445 38.1938 32.2571 38.2039 32.2815C38.2846 32.4504 38.4661 32.5697 38.572 32.6227L43.2631 32.6975C43.4623 32.5033 43.9539 32.0218 44.4615 31.5117C43.3068 31.073 42.8866 30.0788 42.8169 29.4174C42.1723 29.1426 41.726 28.7308 41.4789 28.1963C41.1781 27.5324 41.2848 26.8685 41.3663 26.5449C40.7402 26.3172 40.0822 25.9012 39.4099 25.2339H32.343C32.6464 26.0482 32.9027 26.929 32.9027 27.8055V36.8566Z" fill="#FFE52B"/>
<path fill-rule="evenodd" clip-rule="evenodd" d="M39.3594 40.7582C39.2443 40.7473 39.1493 40.8372 39.1401 40.949C39.1317 41.065 39.2183 41.1641 39.3342 41.1675C39.4468 41.1767 39.5443 41.091 39.5553 40.9767C39.5595 40.8658 39.4763 40.7633 39.3594 40.7582Z" fill="#1A1919"/>
<path fill-rule="evenodd" clip-rule="evenodd" d="M48.7047 56.6608L47.7845 54.1262C48.8795 53.7942 50.7637 53.0757 51.6083 52.5992L51.0452 54.4422L52.9529 55.0767C51.799 55.6565 50.3998 56.1961 48.7047 56.6608ZM42.9866 58.9374C40.7671 58.9374 38.2342 58.4273 37.4871 58.1609L38.6208 55.0935C39.562 55.3691 41.5193 55.6599 42.9387 55.6506H42.9421H42.9866H43.0244H43.0286C44.4489 55.6599 46.4028 55.3691 47.3483 55.0935L48.4803 58.1609C47.734 58.4273 45.2011 58.9374 42.9866 58.9374ZM33.0145 55.0767L34.9255 54.4422L34.3608 52.5992C35.2029 53.0757 37.0904 53.7942 38.1837 54.1262L37.2618 56.6608C35.5726 56.1961 34.1675 55.6565 33.0145 55.0767ZM53.0386 54.5136L51.8772 54.0682L52.1982 52.8672L52.5512 51.5604C52.5512 51.5604 50.4931 52.6773 47.5928 53.5152C46.7701 53.7505 46.1474 53.8581 46.1474 53.8581V54.7497C46.1474 54.7497 44.596 55.0187 43.0286 55.0187H43.0102H42.9866H42.9564H42.9387C41.3697 55.0187 39.8208 54.7497 39.8208 54.7497V53.8581C39.8208 53.8581 39.1973 53.7505 38.3754 53.5152C35.476 52.6773 33.4195 51.5604 33.4195 51.5604L33.7674 52.8672L34.0944 54.0682L32.9296 54.5136L31.637 54.9968C33.1178 55.712 35.1701 56.7524 37.0484 57.2667L36.6055 58.4777C36.6055 58.4777 38.988 59.5619 42.9564 59.5728V59.5745H42.9681H42.9866H43.0009H43.0102V59.5728C46.9836 59.5619 49.3636 58.4777 49.3636 58.4777L48.919 57.2667C50.7973 56.7524 52.8537 55.712 54.3278 54.9968L53.0386 54.5136Z" fill="#1A1919"/>
<path fill-rule="evenodd" clip-rule="evenodd" d="M38.1341 5.6838L38.6619 5.73843L38.8896 5.25688L39.5552 3.83493L40.7898 4.47363L41.268 4.71819L41.6495 4.34001L42.9815 3.0189L44.3169 4.34001L44.6993 4.71819L45.1775 4.47363L46.4062 3.83493L47.0802 5.25688L47.3037 5.73843L47.8323 5.6838L48.3366 5.62246C48.1063 6.1435 47.9348 6.6385 47.8138 7.04693C46.4801 6.30402 44.7489 5.8813 42.9815 5.8813C41.2226 5.8813 39.4922 6.30402 38.1543 7.04693C38.0316 6.6385 37.8627 6.1435 37.6316 5.62246L38.1341 5.6838ZM42.9815 6.62337C45.3464 6.62337 47.2373 7.40746 48.2828 8.24198C48.2828 8.24198 48.5929 6.37293 49.6526 4.72407L47.7483 4.94089L46.7516 2.82477L44.838 3.81056L42.9815 1.97681L41.1301 3.81056L39.2124 2.82477L38.2173 4.94089L36.3138 4.72407C37.3744 6.37293 37.6837 8.24198 37.6837 8.24198C38.7358 7.40746 40.6209 6.62337 42.9815 6.62337Z" fill="#1A1919"/>
<path fill-rule="evenodd" clip-rule="evenodd" d="M72.9473 38.059C72.9473 38.059 72.1246 39.491 70.2354 39.491H70.2127C67.9453 39.4776 67.0309 38.0951 67.0309 38.0951C67.0309 38.0951 67.162 39.8944 66.346 42.3215C65.3619 45.2494 66.3544 47.3395 66.3544 47.3395C66.3544 47.3395 65.825 47.4832 65.2157 47.4832C64.982 47.4832 64.7383 47.4605 64.5089 47.4C62.6155 46.9504 62.1432 45.2259 62.1432 45.2259C62.1432 45.2259 62.3171 51.049 55.5284 51.049H55.4754C55.4754 51.049 56.0738 50.2347 56.2503 47.8933C56.573 43.5737 59.4976 42.9795 59.4976 42.9795C59.4976 42.9795 57.937 42.7837 57.2596 42.1778C56.2016 41.2189 56.2772 40.1104 56.2772 40.1104C58.6656 40.0776 60.2304 39.265 61.4229 37.885C62.7146 36.3916 62.9264 34.7823 62.9264 34.7823C62.9264 34.7823 61.6414 35.9462 59.1589 35.9462C58.9404 35.9462 58.7068 35.9361 58.4673 35.9126C57.2915 35.8176 56.4806 35.0705 56.4806 35.0705C59.0656 33.4133 60.8792 30.5198 59.2707 26.1648C57.9824 22.673 54.8863 20.066 51.7684 18.102C50.7314 17.4541 50.1532 16.733 50.1532 16.1145C50.1532 14.6547 52.2281 14.6085 53.0786 13.6294C54.0602 12.489 53.4442 10.6427 52.5937 9.53081C52.5937 9.53081 52.8803 9.47198 53.3324 9.47198C54.2291 9.47198 55.7822 9.69721 57.0579 11.0208C58.753 12.7731 58.0504 14.6841 58.0504 14.6841L58.5042 14.7724C58.7757 14.8295 59.0455 14.8396 59.3262 14.8547C59.3867 14.8547 59.4489 14.8581 59.5085 14.8581C61.9709 14.8581 63.071 12.284 63.071 12.284C63.071 12.284 65.6888 15.5027 61.8347 18.0264C61.1717 18.4584 60.8792 18.8576 60.9557 19.2845L61.0162 19.5635L61.2902 19.6131C64.0828 20.3703 65.4972 22.2973 67.2225 24.4882C69.8446 27.8187 73.5516 27.9263 74.0088 27.9263H74.0583C74.0583 27.9263 73.2129 30.5979 70.7194 30.5979C70.6774 30.5979 70.6421 30.5979 70.6009 30.5954C69.4555 30.5542 68.8672 30.1164 68.8672 30.1164C68.8672 30.1164 68.4209 36.1799 72.9473 38.059ZM70.7194 31.4156C73.7768 31.4156 74.7996 28.3062 74.8416 28.1725L75.1836 27.0767L74.0373 27.1119H74.0331C73.6289 27.1119 70.2547 27.022 67.8638 23.9823L67.6377 23.7008C66.0746 21.7141 64.5929 19.8232 61.9432 18.9609C62.0196 18.8912 62.1297 18.8071 62.2802 18.7096C63.6861 17.7852 64.5038 16.6608 64.7097 15.3573C65.0106 13.3958 63.7584 11.831 63.7029 11.7671L62.8525 10.7141L62.3196 11.9629C62.2844 12.0411 61.3902 14.0404 59.5085 14.0404H59.3682C59.2396 14.0328 59.1161 14.0278 58.9959 14.0185C59.0623 13.1269 58.8992 11.7469 57.647 10.451C56.1419 8.89379 54.2964 8.66016 53.3324 8.66016C52.8164 8.66016 52.4744 8.72319 52.4366 8.72739L51.1508 8.98203L51.9441 10.0283C52.566 10.8334 53.1299 12.3209 52.4609 13.0975C52.2466 13.3454 51.8071 13.5446 51.3869 13.7462C50.5205 14.1446 49.3372 14.7009 49.3372 16.1145C49.3372 17.0288 50.0481 17.9852 51.334 18.7987C55.141 21.193 57.489 23.6907 58.5042 26.4489C60.0733 30.6904 58.0252 33.1099 56.0377 34.3856L55.1452 34.9596L55.9259 35.6764C56.0318 35.7681 56.9856 36.6101 58.3967 36.7312C58.6639 36.748 58.9194 36.7631 59.1589 36.7631C60.0623 36.7631 60.833 36.6211 61.4591 36.4303C61.2876 36.7311 61.0742 37.0396 60.8086 37.348C59.6724 38.6649 58.274 39.265 56.2637 39.2969L55.5158 39.3087L55.4586 40.0583C55.4519 40.2096 55.3956 41.5996 56.7108 42.7803C56.9117 42.9644 57.1546 43.1148 57.4109 43.2375C56.5184 44.0401 55.6116 45.4394 55.4359 47.8353C55.288 49.8355 54.8115 50.5759 54.8048 50.5826L53.9804 51.8432L55.4721 51.8642C57.9387 51.8642 59.8262 51.1835 61.1347 49.8355C61.9079 49.0371 62.3499 48.1362 62.6113 47.3395C63.0407 47.7051 63.5937 48.0261 64.3173 48.1967C64.5904 48.2614 64.8904 48.2959 65.2157 48.2959C65.9115 48.2959 66.4948 48.148 66.5603 48.132L67.5125 47.879L67.0914 46.9899C67.0603 46.9185 66.2653 45.1335 67.1209 42.5879C67.4889 41.4853 67.6772 40.5003 67.7688 39.7322C68.3688 40.0448 69.1723 40.3037 70.211 40.3062C72.57 40.3062 73.6104 38.5439 73.6566 38.4699L74.1214 37.6606L73.26 37.306C70.4488 36.1395 69.8269 33.004 69.7026 31.3089C69.9564 31.3576 70.2463 31.403 70.5741 31.4123L70.7194 31.4156Z" fill="#1A1919"/>
<path fill-rule="evenodd" clip-rule="evenodd" d="M67.2835 18.1084C67.8524 18.1084 68.5172 18.3025 69.145 18.9513C71.1157 20.9515 72.9478 21.0632 72.9478 21.0632C72.615 21.8011 71.6493 22.4474 70.6493 22.4474C70.4182 22.4474 70.1862 22.4129 69.9559 22.3331C68.6004 21.8751 68.1155 19.8421 65.7346 18.5765C65.7346 18.5765 66.3985 18.1084 67.2835 18.1084ZM65.3463 19.2992C66.4868 19.9068 67.1515 20.7203 67.7339 21.4422C68.3071 22.1473 68.8491 22.8247 69.6996 23.1071C70.0013 23.2104 70.3223 23.26 70.6493 23.26C71.9241 23.26 73.2058 22.4793 73.6923 21.3977L74.1815 20.3144L72.9982 20.2447C72.9427 20.243 71.4216 20.1035 69.729 18.374C69.0332 17.6655 68.1903 17.2924 67.2835 17.2924C66.175 17.2924 65.3531 17.8462 65.2623 17.9033L64.1757 18.6689L65.3463 19.2992Z" fill="#1A1919"/>
<path fill-rule="evenodd" clip-rule="evenodd" d="M65.8818 30.098V30.14C65.196 24.6026 61.1756 20.604 56.7004 18.1744C56.287 17.9517 55.9046 17.7634 55.534 17.5836C56.8954 17.7945 59.0897 17.8206 60.7831 16.3516C60.7831 16.3516 58.1921 18.2576 52.885 16.5264C54.3532 17.4794 57.208 18.8249 59.815 21.004C66.3297 26.728 61.6697 32.3124 61.6697 32.3124C64.0102 29.8685 64.1077 27.2515 63.4186 25.1136C64.6514 27.1658 65.4397 29.6559 65.317 32.7284C65.1372 37.1279 62.7185 40.9341 60.1746 43.9906C58.951 45.4747 58.6779 47.2984 58.6779 47.2984C58.6779 47.2984 59.172 45.689 60.5873 44.0335C63.3144 40.8399 65.6465 37.5246 65.9515 32.7452C66.2331 33.6134 67.3962 36.0236 69.2383 36.9312C69.2383 36.9312 66.9222 35.5362 65.8818 30.098Z" fill="#1A1919"/>
<path fill-rule="evenodd" clip-rule="evenodd" d="M30.4392 51.049C23.6496 51.049 23.8227 45.2259 23.8227 45.2259C23.8227 45.2259 23.3496 46.9504 21.457 47.4C21.231 47.4597 20.9889 47.4832 20.7519 47.4832C20.1426 47.4832 19.6157 47.3395 19.6157 47.3395C19.6157 47.3395 20.6032 45.2494 19.6191 42.3215C18.8056 39.8944 18.9367 38.0951 18.9367 38.0951C18.9367 38.0951 18.0248 39.4776 15.7549 39.491H15.7322C13.8447 39.491 13.0211 38.059 13.0211 38.059C17.5441 36.1799 17.1012 30.1164 17.1012 30.1164C17.1012 30.1164 16.513 30.5542 15.3658 30.5954C15.3246 30.5979 15.2868 30.5979 15.2473 30.5979C12.7522 30.5979 11.9067 27.9263 11.9067 27.9263H11.9572C12.4177 27.9263 16.1222 27.8187 18.7417 24.4882C20.4679 22.2973 21.8831 20.3711 24.6724 19.6131L24.9522 19.5635L25.0119 19.2845C25.0892 18.8576 24.7976 18.4575 24.1345 18.0264C20.2813 15.5027 22.8983 12.284 22.8983 12.284C22.8983 12.284 23.9925 14.8581 26.4616 14.8581C26.5213 14.8581 26.5776 14.8556 26.6414 14.8556C26.9188 14.8396 27.1919 14.8295 27.4634 14.7724L27.9172 14.6841C27.9172 14.6841 27.2121 12.7731 28.9105 11.0208C30.1871 9.69721 31.7385 9.47198 32.6352 9.47198C33.0898 9.47198 33.3722 9.53081 33.3722 9.53081C32.5234 10.6427 31.9082 12.489 32.8898 13.6294C33.7394 14.6085 35.8119 14.6547 35.8119 16.1145C35.8119 16.733 35.2345 17.4541 34.1983 18.102C31.0787 20.066 27.9836 22.673 26.6961 26.1648C25.0892 30.5206 26.902 33.4124 29.4912 35.0705C29.4912 35.0705 28.6777 35.8176 27.5003 35.9126C27.26 35.9361 27.0289 35.9462 26.8062 35.9462C24.3253 35.9462 23.0412 34.7823 23.0412 34.7823C23.0412 34.7823 23.2546 36.3916 24.5388 37.8859C25.7389 39.265 27.302 40.0776 29.6904 40.1104C29.6904 40.1104 29.766 41.2189 28.7105 42.1778C28.0323 42.7837 26.47 42.9795 26.47 42.9795C26.47 42.9795 29.3971 43.5728 29.719 47.8933C29.8938 50.2347 30.4879 51.049 30.4879 51.049H30.4392ZM31.1611 50.5826C31.1594 50.575 30.6846 49.8355 30.5333 47.8353C30.356 45.4385 29.4492 44.0401 28.555 43.2367C28.813 43.1148 29.0525 42.9644 29.2542 42.7803C30.5686 41.5996 30.5132 40.2096 30.5039 40.0583L30.4535 39.3087L29.7005 39.2969C27.6961 39.265 26.2952 38.6649 25.159 37.348C24.8951 37.0396 24.6816 36.7311 24.5085 36.4294C25.1338 36.6211 25.8994 36.7631 26.8062 36.7631C27.049 36.7631 27.302 36.748 27.5684 36.7312C28.9803 36.6101 29.9358 35.7689 30.0417 35.6764L30.8233 34.9587L29.9316 34.3856C27.9365 33.1099 25.896 30.6904 27.4634 26.4489C28.4786 23.6907 30.8233 21.193 34.6362 18.7987C35.922 17.9852 36.6271 17.0288 36.6271 16.1145C36.6271 14.7009 35.4463 14.1446 34.5807 13.7462C34.1596 13.5446 33.7201 13.3454 33.5067 13.0975C32.836 12.3209 33.4008 10.8334 34.0227 10.0275L34.821 8.98203L33.5293 8.72739C33.4915 8.72319 33.1529 8.66016 32.6352 8.66016C31.6695 8.66016 29.8282 8.89379 28.3248 10.451C27.0709 11.7478 26.9062 13.1269 26.97 14.0185C26.8499 14.0278 26.7272 14.0328 26.5986 14.0404H26.4616C24.5741 14.0404 23.6832 12.0411 23.6479 11.9629L23.1176 10.7141L22.2588 11.7671C22.21 11.831 20.9553 13.395 21.2604 15.3573C21.4629 16.6608 22.2823 17.7852 23.6891 18.7096C23.8421 18.8071 23.948 18.8912 24.0244 18.9609C21.3713 19.8232 19.8905 21.7141 18.3282 23.6999L18.103 23.9823C15.7146 27.022 12.3337 27.1119 11.9294 27.1119L10.7772 27.0767L11.1277 28.1725C11.1689 28.3062 12.1874 31.4156 15.2473 31.4156L15.3952 31.4123C15.7188 31.403 16.0087 31.3576 16.2676 31.3081C16.1407 33.004 15.5162 36.1387 12.7043 37.306L11.8462 37.6606L12.311 38.4699C12.3555 38.5439 13.3984 40.3062 15.7616 40.3062C16.7945 40.3028 17.5979 40.0448 18.1988 39.7331C18.2896 40.5003 18.4778 41.4853 18.8467 42.5879C19.7023 45.1335 18.9064 46.9185 18.8762 46.9899L18.4534 47.879L19.4081 48.132C19.4712 48.148 20.0578 48.2959 20.7519 48.2959C21.0763 48.2959 21.3772 48.2606 21.6478 48.1959C22.3722 48.0261 22.9311 47.7051 23.3563 47.3395C23.6152 48.1362 24.0597 49.0371 24.8312 49.8355C26.1431 51.1835 28.0289 51.8642 30.4938 51.8642L31.9872 51.8432L31.1611 50.5826Z" fill="#1A1919"/>
<path fill-rule="evenodd" clip-rule="evenodd" d="M16.821 18.9513C17.4513 18.3025 18.1144 18.1084 18.6867 18.1084C19.5666 18.1084 20.2331 18.5757 20.2331 18.5757C17.8547 19.8438 17.3648 21.8759 16.0059 22.3331C15.7815 22.4129 15.5487 22.4474 15.3167 22.4474C14.3183 22.4474 13.351 21.802 13.0216 21.0632C13.0216 21.0632 14.852 20.9515 16.821 18.9513ZM15.3167 23.26C15.6445 23.26 15.9647 23.2105 16.2681 23.1071C17.1202 22.8247 17.6623 22.1482 18.2346 21.4423C18.8204 20.7204 19.4784 19.906 20.6188 19.2984L21.7928 18.6698L20.7028 17.9033C20.6121 17.8462 19.7944 17.2932 18.6867 17.2932C17.7774 17.2932 16.9345 17.6655 16.2378 18.3748C14.5444 20.1043 13.0266 20.243 12.972 20.2447L11.7904 20.3144L12.2753 21.3986C12.7636 22.4785 14.0435 23.26 15.3167 23.26Z" fill="#1A1919"/>
<path fill-rule="evenodd" clip-rule="evenodd" d="M20.6529 32.7276C20.526 29.6568 21.3143 27.1667 22.5488 25.1136C21.8605 27.2507 21.9538 29.8685 24.2985 32.3133C24.2985 32.3133 19.6368 26.728 26.155 21.004C28.7602 18.8249 31.6125 17.4794 33.0807 16.5264C27.7752 18.2576 25.1843 16.3524 25.1843 16.3524C26.8777 17.8206 29.072 17.7954 30.4326 17.5828C30.0645 17.7634 29.6779 17.9509 29.267 18.1736C24.791 20.6032 20.7722 24.6026 20.0831 30.1408V30.098C19.0443 35.5362 16.7307 36.9313 16.7307 36.9313C18.5712 36.0236 19.7301 33.6134 20.0125 32.7452C20.3209 37.5246 22.6522 40.84 25.3793 44.0335C26.7937 45.6891 27.2929 47.2976 27.2929 47.2976C27.2929 47.2976 27.0164 45.4747 25.7877 43.9906C23.2472 40.9349 20.8302 37.1279 20.6529 32.7276Z" fill="#1A1919"/>
<path fill-rule="evenodd" clip-rule="evenodd" d="M41.4503 21.5242V22.6234C41.8294 22.162 42.5605 22.2553 42.5605 22.2553V23.8386C42.5605 23.8386 42.5353 24.6177 42.258 24.9547H43.0521H43.8421C43.569 24.6177 43.5412 23.8386 43.5412 23.8386V22.2553C43.5412 22.2553 44.2741 22.162 44.6506 22.6234V21.5242H43.0521H41.4503Z" fill="#1A1919"/>
<path fill-rule="evenodd" clip-rule="evenodd" d="M40.7698 15.0126C41.2774 15.4143 41.569 15.4816 41.5782 15.4866L41.7766 15.579V14.5445L39.9159 13.7629C39.9159 13.7629 39.9319 14.3621 40.7698 15.0126Z" fill="#1A1919"/>
<path fill-rule="evenodd" clip-rule="evenodd" d="M45.1955 15.0126C46.0359 14.3621 46.0519 13.7629 46.0519 13.7629L44.1912 14.5445V15.579L44.3879 15.4866C44.398 15.4816 44.6896 15.4143 45.1955 15.0126Z" fill="#1A1919"/>
<path fill-rule="evenodd" clip-rule="evenodd" d="M42.9817 12.2583L38.499 10.4876C38.8805 9.5842 40.6387 8.81692 42.9817 8.8144C45.3289 8.81692 47.087 9.5842 47.4661 10.4876L42.9817 12.2583ZM46.3248 17.8075L43.3111 19.395V12.9651L47.4005 11.5768L46.3248 17.8075ZM48.1913 19.5144L49.5687 20.3144H49.5881L49.9343 20.5153C49.1561 20.7312 48.5628 21.1204 48.0627 21.6305C48.0442 21.6473 48.0283 21.6649 48.0081 21.6851C47.8938 21.807 47.7812 21.9389 47.6719 22.0742C47.6518 22.0994 47.6299 22.1263 47.6072 22.1557C47.5013 22.2927 47.4005 22.4339 47.3039 22.5801C47.2879 22.6053 47.2702 22.6306 47.2534 22.6549C47.1391 22.8247 47.0299 23.007 46.9206 23.1953C45.9399 24.8853 44.3734 25.8963 42.9817 25.898C41.5908 25.8963 40.0243 24.8853 39.0453 23.1953C38.9385 23.0121 38.8301 22.8339 38.7175 22.6625C38.6948 22.6305 38.6738 22.5969 38.6536 22.57C38.5578 22.4289 38.4603 22.291 38.3629 22.1616C38.3376 22.1263 38.3141 22.0994 38.2889 22.0683C38.183 21.9389 38.0738 21.8078 37.9628 21.6893C37.9393 21.67 37.9233 21.6473 37.9032 21.6271C37.4006 21.1162 36.809 20.7312 36.0299 20.5153L36.3795 20.3144H36.3946L37.7754 19.5144L39.1915 18.7025L42.975 20.7615L42.9817 20.7531L42.9926 20.7615L46.7752 18.7025L48.1913 19.5144ZM53.6262 25.2333C53.3177 26.0476 53.0631 26.9292 53.0631 27.8057L53.0656 33.4641C51.8823 33.2658 51.7437 31.9926 51.7386 31.938L51.7168 31.6783L51.4621 31.6564C50.9478 31.606 50.6075 31.39 50.32 31.111C49.7402 30.5303 49.7393 29.5907 49.7402 29.5823C49.7318 29.6311 49.1023 30.5135 49.8335 31.4774C50.141 31.8833 50.5873 32.1329 51.1638 32.2313C51.2991 32.9372 51.8252 33.9356 53.0656 34.0869V36.8568H49.5763C47.9678 35.961 48.6502 34.3852 48.6804 34.318L48.8166 34.0196L48.509 33.9028C46.7668 33.2565 47.2467 31.5194 47.2702 31.4438L47.34 31.1908L47.103 31.0782C45.6651 30.4118 45.8592 28.6159 45.8785 28.5402C45.4356 28.8999 45.276 29.6311 45.581 30.3479C45.4163 30.537 45.1953 30.7648 44.9524 31.0152C43.4624 30.6353 43.4162 29.2672 43.4162 29.2041L43.4128 28.9932L43.217 28.9176C42.6354 28.7016 42.2362 28.3789 42.0388 27.9452C41.8186 27.4654 41.8959 26.9611 41.9564 26.7182C42.1278 26.7577 42.2976 26.7838 42.459 26.7981C42.627 26.8149 42.7985 26.8258 42.9716 26.8258H42.9817H42.9951C43.1674 26.8258 43.338 26.8149 43.5061 26.7981C44.4347 26.7056 45.4735 26.3073 46.5567 25.2333H53.6262ZM49.2679 49.8922L49.657 47.8627C49.678 47.7433 49.7024 47.6038 49.7192 47.487C49.8301 47.5332 49.9452 47.5711 50.0713 47.5946C50.2175 47.6215 50.3511 47.6366 50.473 47.6366C51.068 47.6366 51.4151 47.3231 51.6445 47.0559L51.9437 46.708L51.7 46.3264C51.6781 46.2878 51.1361 45.4339 50.7218 44.8482C50.6394 44.7339 50.5621 44.6196 50.4831 44.4952C50.0099 43.7884 49.4183 42.9018 48.2317 42.9018L48.1249 42.9043C47.93 42.9161 47.7619 42.9547 47.6257 43.0069C47.2534 42.8321 46.8685 42.7413 46.4685 42.7413C45.9769 42.7413 45.5651 42.8774 45.2894 42.9707C45.2096 42.9934 45.1398 43.0195 45.0844 43.0287L42.8657 42.811C42.838 42.806 42.7481 42.7522 42.6371 42.622V42.6102L43.117 42.4186C42.9817 40.8193 41.4471 39.8352 40.5916 39.5032C40.5538 39.3436 40.4773 39.1839 40.3428 39.0536L39.8655 38.6006L39.447 39.1032L39.2402 39.3587L36.1341 38.083L38.1544 40.6201L37.3577 41.8286C37.0661 42.1387 37.388 42.4497 37.388 42.4497L38.2124 43.0169L39.0654 42.6984C39.0948 42.6984 39.1217 42.7052 39.1503 42.7077C39.1083 42.8388 39.0553 43.3472 39.02 43.4892L37.5376 43.1976L35.9795 44.0767C35.1794 44.6658 35.0702 45.6381 35.3677 46.3037L35.54 46.6819L35.7853 47.2156L36.3308 46.9895C36.3383 46.987 36.3459 46.9845 36.3509 46.9803C36.1543 47.6072 36.235 48.2022 36.5837 48.5905L36.9148 49.0073L37.3544 49.5636L37.8384 49.0434C37.9796 48.9031 38.4419 48.3862 38.583 47.9442L38.6881 47.6072L38.4528 47.3467L38.4133 47.2996L38.6788 46.8626L40.6134 47.3181L41.0488 47.4181L41.2807 47.0357L41.4059 46.8281C41.4303 46.7836 41.4362 46.7769 41.5253 46.7769C41.5942 46.7769 41.6623 46.7836 41.7362 46.8013C42.4665 46.9382 43.1397 47.0071 43.7372 47.0071C44.3171 47.0071 44.6633 46.9845 45.076 46.8475C45.076 46.8475 46.1147 48.0282 46.1508 48.0719L45.5146 50.0359L45.4861 50.1544C44.2809 50.2519 43.6952 50.5158 42.9859 51.2243C41.9564 50.2023 41.2269 50.0948 38.4603 50.0948C35.1475 50.0948 32.9028 48.1535 32.9028 45.0515V37.4678H53.0656L53.069 45.0515C53.069 47.5652 51.5932 49.3208 49.2679 49.8922ZM36.8485 45.6054L36.9527 45.8667C36.8837 46.097 36.0971 46.4206 36.0971 46.4206L35.9274 46.0483C35.7467 45.6516 35.7853 44.9826 36.3333 44.5742L37.6082 43.7968L38.9612 44.0842C38.9368 44.5128 39.1932 44.8347 39.1932 44.8347L37.7754 44.5616L36.9283 45.1482C36.7837 45.2482 36.7737 45.4339 36.8485 45.6054ZM49.0544 47.7484L48.6191 50.0166C48.3409 50.0561 48.0484 50.0754 47.7459 50.0881L48.2039 47.9081C48.3409 47.2601 46.6013 47.0584 45.7416 45.7844C45.3222 46.2558 44.5322 46.3979 43.7372 46.3979C43.0128 46.3979 42.2892 46.2819 41.8488 46.1953C41.7371 46.1768 41.6303 46.1651 41.5253 46.1651C41.2715 46.1651 41.0404 46.2432 40.879 46.5122L40.7538 46.7256L38.3822 46.1668L37.7931 47.1441C37.7099 47.3021 37.704 47.4341 37.8384 47.5828L37.9981 47.7576C37.8872 48.103 37.3947 48.6258 37.3947 48.6258L37.0426 48.1854C36.7636 47.8736 36.809 47.3021 37.0997 46.7735L38.0401 45.1868L40.0487 45.4759L39.7369 44.7658C39.3167 43.8254 39.9562 42.6287 40.0243 41.9395C40.0016 42.1471 39.81 42.195 39.5873 42.195C39.3848 42.195 39.1587 42.1564 39.0083 42.1564C38.9495 42.1564 38.8982 42.1623 38.8713 42.1824L38.3267 42.5119L37.8981 42.1328C37.846 42.0606 37.83 41.89 37.9561 41.7614L38.9494 40.647L37.7754 39.2755L39.4192 40.1016L39.921 39.4931C40.0596 39.6285 39.9991 39.9814 39.9991 39.9814C40.5109 39.994 41.9505 40.789 42.027 42.6463C42.0304 42.7035 42.0304 42.7673 42.0304 42.8278C42.0304 42.8278 42.0438 42.8505 42.069 42.8884C42.1699 43.0287 42.4514 43.3867 42.8069 43.4203L45.0785 43.6456H45.0869C45.3356 43.6456 45.8323 43.3531 46.4685 43.3531C46.8147 43.3531 47.1996 43.4405 47.6114 43.7002C47.6114 43.7002 47.8182 43.5363 48.1527 43.5195C48.1779 43.5161 48.2073 43.5161 48.2317 43.5161C49.2494 43.5161 49.6729 44.4372 50.22 45.2011C50.631 45.7844 51.1806 46.6491 51.1806 46.6491C50.9781 46.8895 50.7898 47.0231 50.473 47.0231C50.3864 47.0231 50.2881 47.0164 50.1805 46.9945C49.0872 46.7937 48.93 44.5473 48.3064 44.37C48.2728 44.3607 48.2392 44.3565 48.2073 44.3565C48.0064 44.3565 47.919 44.5355 47.919 44.5355C48.2039 45.3011 48.0375 45.6112 48.3443 46.2012C48.5737 46.6382 48.9804 46.9987 49.1477 47.1685C49.1477 47.1685 49.1023 47.5005 49.0544 47.7484ZM46.9635 50.1023C46.6576 50.1023 46.3752 50.1074 46.1223 50.1175L46.7878 48.045C46.8921 47.7576 46.366 47.3895 46.1491 47.0651C46.4769 47.2719 47.3257 47.7223 47.735 47.9022C47.6938 47.9694 46.9635 50.1023 46.9635 50.1023ZM37.0703 31.4295L37.1653 27.8267L37.9737 26.972L38.4813 28.0343L37.4796 31.4934L37.0703 31.4295ZM37.6519 32.5456C37.7838 32.8237 38.0216 33.007 38.1889 33.1128C38.183 33.3734 38.1586 33.7759 38.0897 34.1322C38.0738 34.2121 38.0536 34.2852 38.0317 34.3583C38.02 34.4045 38.0065 34.4415 37.9964 34.4726C37.7494 34.4726 37.2653 34.4415 36.8678 34.2978C36.4283 34.1356 35.7727 33.3297 35.924 32.4414C36.1139 32.3245 36.5543 32.0766 36.967 32.0766C37.2829 32.0766 37.5006 32.2262 37.6519 32.5456ZM47.0148 33.5137C46.3929 33.9717 44.7919 35.1416 44.2103 35.5475L38.6183 34.5432C38.6309 34.4919 38.6444 34.4415 38.657 34.3936C38.7301 34.1028 38.8057 33.707 38.8091 33.2414L43.5095 33.3162L43.5994 33.2246C43.6708 33.1532 45.16 31.7144 45.9189 30.8875C46.0996 31.1144 46.3248 31.3295 46.6214 31.5194C46.5198 32.0699 46.5626 32.854 47.0148 33.5137ZM39.41 25.2333C40.0823 25.9005 40.7403 26.3174 41.3656 26.5451C41.2849 26.8678 41.1782 27.5334 41.4791 28.1965C41.7261 28.731 42.1715 29.1428 42.817 29.4176C42.8876 30.079 43.3061 31.0724 44.4616 31.511C43.9549 32.0212 43.4624 32.5036 43.2632 32.6968L38.573 32.622C38.4662 32.5699 38.2847 32.4498 38.204 32.2808C38.1948 32.2573 38.1796 32.2439 38.1696 32.2212L38.9343 32.3439C38.9511 32.3464 38.9671 32.3464 38.9831 32.3464C39.1318 32.3464 39.2604 32.2439 39.2848 32.0926C39.31 31.9228 39.1965 31.7674 39.0318 31.7413L38.0897 31.5926L39.1343 27.9839L38.1443 25.9005L36.5594 27.578L36.4619 31.3295L35.3962 31.1606C35.2315 31.1287 35.0744 31.2488 35.0458 31.4161C35.0197 31.58 35.1324 31.7371 35.2996 31.7665L35.7467 31.8346C35.587 31.9254 35.4811 31.9976 35.4685 32.0077L35.3786 32.0707L35.3534 32.1825C35.0945 33.2355 35.6803 34.2339 36.314 34.6827L36.2913 34.8155C36.2652 34.9768 36.3022 35.1348 36.3997 35.2668C36.4921 35.4021 36.6325 35.4828 36.7921 35.5113C36.8241 35.5172 36.8594 35.5197 36.8905 35.5197C37.1653 35.5197 37.4048 35.3298 37.4712 35.0525C37.7073 35.0802 37.9233 35.0861 38.0712 35.0861H38.1965L44.3507 36.1979L44.4557 36.1282C44.9449 35.7861 46.8147 34.4239 47.4282 33.9726C47.5963 34.118 47.7846 34.2491 48.0123 34.3583C47.814 35.0231 47.8014 36.0484 48.5855 36.8568H32.9028V27.8057C32.9028 26.9292 32.6465 26.0476 32.3431 25.2333H39.41ZM38.562 11.5768L42.6548 12.9651V19.395L39.6411 17.8075L38.562 11.5768ZM48.5468 10.8011C48.5468 9.23207 45.9063 7.82104 42.9909 7.82104H42.9884H42.9817H42.975C40.0596 7.82104 37.4191 9.23207 37.4191 10.8011L37.4771 11.1868L38.641 17.8689L37.4712 18.5471L34.4466 20.3144H34.4584C34.4584 20.3144 33.7776 20.6632 33.4616 20.8783C32.3103 21.6775 32.0649 22.8457 32.7339 23.3281C32.8986 22.3759 33.6516 21.3809 35.0601 21.3809C36.0744 21.3809 36.8485 21.9053 37.4712 22.6902C37.6325 22.8877 37.7855 23.0995 37.9275 23.3281C38.1023 23.6155 38.278 23.8668 38.4528 24.1105H30.6606C31.2337 25.261 31.7775 26.4804 31.7775 27.8057V45.0515C31.7775 49.2258 34.9878 51.2175 38.4603 51.2175C41.1437 51.2175 41.5051 51.0949 42.9859 52.5714C44.4599 51.0949 44.8222 51.2175 47.5081 51.2175C50.9823 51.2175 54.1884 49.2258 54.1884 45.0515V27.8057C54.1884 26.4804 54.7321 25.261 55.307 24.1105H47.5131C47.6862 23.8668 47.8619 23.6155 48.0375 23.3281C48.1812 23.0995 48.3333 22.8877 48.4905 22.6902C49.12 21.9028 49.8914 21.3809 50.9066 21.3809C52.3143 21.3809 53.0656 22.3759 53.2329 23.3281C53.9018 22.8457 53.6589 21.6775 52.5009 20.8783C52.1908 20.6632 51.5092 20.3144 51.5092 20.3144H51.5193L48.4905 18.5471L47.3257 17.8689L48.4905 11.1868L48.5468 10.8011Z" fill="#1A1919"/>
</g>
</svg>
