<?xml version="1.0" encoding="utf-8"?>
<!-- Generator: Adobe Illustrator 24.0.2, SVG Export Plug-In . SVG Version: 6.00 Build 0)  -->
<svg version="1.1" id="Слой_1" xmlns="http://www.w3.org/2000/svg" xmlns:xlink="http://www.w3.org/1999/xlink" x="0px" y="0px"
	 viewBox="0 0 16 16" style="enable-background:new 0 0 16 16;" xml:space="preserve">
<style type="text/css">
	.st0{fill:#9395A4;}
</style>
<g>
	<path class="st0" d="M14,3.3h-2.6V2.7c0-1.2-0.9-2.1-2.1-2.1H6.7c-1.2,0-2.1,0.9-2.1,2.1v0.6H2C1.6,3.3,1.3,3.6,1.3,4
		S1.6,4.8,2,4.8h0.6v8.6c0,1.2,0.9,2.1,2.1,2.1h6.7c1.2,0,2.1-0.9,2.1-2.1V4.8H14c0.4,0,0.8-0.3,0.8-0.8S14.4,3.3,14,3.3z M6.1,2.7
		c0-0.3,0.3-0.6,0.6-0.6h2.7c0.3,0,0.6,0.3,0.6,0.6v0.6H6.1V2.7z M11.9,13.3c0,0.3-0.3,0.6-0.6,0.6H4.7c-0.3,0-0.6-0.3-0.6-0.6V4.8
		h7.8V13.3z"/>
	<path class="st0" d="M6.7,6.6c-0.4,0-0.8,0.3-0.8,0.8v4c0,0.4,0.3,0.8,0.8,0.8s0.8-0.3,0.8-0.8v-4C7.4,6.9,7.1,6.6,6.7,6.6z"/>
	<path class="st0" d="M9.3,6.6c-0.4,0-0.8,0.3-0.8,0.8v4c0,0.4,0.3,0.8,0.8,0.8s0.8-0.3,0.8-0.8v-4C10.1,6.9,9.7,6.6,9.3,6.6z"/>
</g>
</svg>
