<svg width="130" height="84" viewBox="0 0 130 84" fill="none" xmlns="http://www.w3.org/2000/svg">
<g clip-path="url(#clip0)">
<mask id="mask0" mask-type="alpha" maskUnits="userSpaceOnUse" x="93" y="0" width="37" height="50">
<path d="M98.1245 7.664C102.608 6.40181 107.095 5.13829 111.58 3.87761C116.066 2.61795 120.55 1.35425 125.04 0.0915647C127.729 -0.665611 129.937 3.36639 129.937 9.04932C129.937 14.2098 129.937 19.3807 129.937 24.5418C129.937 29.7022 129.937 34.8738 129.937 40.0394C129.937 45.7217 127.732 49.7492 125.04 48.992C120.552 47.7291 116.065 46.4633 111.58 45.2004C107.096 43.9375 102.611 42.6712 98.1245 41.4083C95.4345 40.651 93.2307 37.2396 93.2307 33.8298C93.2307 30.7304 93.2307 27.6308 93.2307 24.5315C93.2307 21.437 93.2307 18.3377 93.2307 15.2373C93.2307 11.828 95.4335 8.42117 98.1245 7.664Z" fill="white"/>
</mask>
<g mask="url(#mask0)">
<path d="M129.937 -0.665787H93.2307V49.749H129.937V-0.665787Z" fill="url(#paint0_linear)"/>
</g>
<mask id="mask1" mask-type="alpha" maskUnits="userSpaceOnUse" x="0" y="0" width="37" height="50">
<path d="M31.8134 7.66394C27.3279 6.40176 22.8425 5.13823 18.3572 3.87756C13.8712 2.61789 9.38651 1.3542 4.89661 0.0915108C2.20679 -0.665833 0 3.36617 0 9.0491C0 14.2096 0 19.3804 0 24.5416C0 29.702 0 34.8736 0 40.0392C0 45.7215 2.20544 49.749 4.89644 48.9918C9.38465 47.7289 13.8702 46.463 18.357 45.2002C22.841 43.9373 27.3263 42.6709 31.8132 41.4081C34.502 40.6507 36.7052 37.2393 36.7052 33.8296C36.7052 30.7302 36.7052 27.6306 36.7052 24.5313C36.7052 21.4368 36.7052 18.3375 36.7052 15.237C36.7052 11.828 34.5035 8.42112 31.8134 7.66394Z" fill="white"/>
</mask>
<g mask="url(#mask1)">
<path d="M36.7054 -0.665787H0V49.749H36.7054V-0.665787Z" fill="url(#paint1_linear)"/>
</g>
<mask id="mask2" mask-type="alpha" maskUnits="userSpaceOnUse" x="72" y="0" width="19" height="50">
<path d="M74.4598 7.664C76.7027 6.40181 78.945 5.13829 81.1884 3.87761C83.4306 2.61795 85.673 1.35425 87.918 0.0915647C89.2624 -0.665611 90.3667 3.36639 90.3667 9.04932C90.3667 14.2098 90.3667 19.3807 90.3667 24.5418C90.3667 29.7022 90.3667 34.8738 90.3667 40.0394C90.3667 45.7217 89.2641 49.7492 87.918 48.992C85.6741 47.7291 83.4313 46.4633 81.1884 45.2004C78.9461 43.9375 76.7032 42.6712 74.4598 41.4083C73.1154 40.651 72.0141 37.2396 72.0141 33.8298C72.0141 30.7304 72.0141 27.6308 72.0141 24.5315C72.0141 21.437 72.0141 18.3377 72.0141 15.2373C72.0141 11.828 73.1149 8.42117 74.4598 7.664Z" fill="white"/>
</mask>
<g mask="url(#mask2)">
<path d="M90.3667 -0.665787H72.0143V49.749H90.3667V-0.665787Z" fill="url(#paint2_linear)"/>
</g>
<mask id="mask3" mask-type="alpha" maskUnits="userSpaceOnUse" x="39" y="0" width="19" height="50">
<path d="M55.4766 7.664C53.2347 6.40181 50.9912 5.13829 48.7485 3.87761C46.5057 2.61795 44.2638 1.35425 42.0189 0.0915647C40.6738 -0.665611 39.5703 3.36639 39.5703 9.04932C39.5703 14.2098 39.5703 19.3807 39.5703 24.5418C39.5703 29.7022 39.5703 34.8738 39.5703 40.0394C39.5703 45.7217 40.6729 49.7492 42.0189 48.992C44.263 47.7291 46.5057 46.4633 48.7485 45.2004C50.9912 43.9375 53.234 42.6712 55.4766 41.4083C56.8216 40.651 57.9229 37.2396 57.9229 33.8298C57.9229 30.7304 57.9229 27.6308 57.9229 24.5315C57.9229 21.437 57.9229 18.3377 57.9229 15.2373C57.9229 11.828 56.8223 8.42117 55.4766 7.664Z" fill="white"/>
</mask>
<g mask="url(#mask3)">
<path d="M57.9229 -0.665787H39.5703V49.749H57.9229V-0.665787Z" fill="url(#paint3_linear)"/>
</g>
<mask id="mask4" mask-type="alpha" maskUnits="userSpaceOnUse" x="66" y="0" width="4" height="50">
<path d="M66.7668 7.664C67.1026 6.40181 67.4386 5.13829 67.7741 3.87761C68.1107 2.61795 68.446 1.35425 68.782 0.0915647C68.9834 -0.665611 69.149 3.36639 69.149 9.04932C69.149 14.2098 69.149 19.3807 69.149 24.5418C69.149 29.7022 69.149 34.8738 69.149 40.0394C69.149 45.7217 68.9834 49.7492 68.782 48.992C68.4462 47.7291 68.1107 46.4633 67.7741 45.2004C67.4384 43.9375 67.1026 42.6712 66.7668 41.4083C66.5656 40.651 66.4006 37.2396 66.4006 33.8298C66.4006 30.7304 66.4006 27.6308 66.4006 24.5315C66.4006 21.437 66.4006 18.3377 66.4006 15.2373C66.4006 11.828 66.5658 8.42117 66.7668 7.664Z" fill="white"/>
</mask>
<g mask="url(#mask4)">
<path d="M69.149 -0.665787H66.4006V49.749H69.149V-0.665787Z" fill="url(#paint4_linear)"/>
</g>
<mask id="mask5" mask-type="alpha" maskUnits="userSpaceOnUse" x="60" y="0" width="4" height="50">
<path d="M63.17 7.664C62.8342 6.40181 62.4977 5.13829 62.1621 3.87761C61.8264 2.61795 61.4906 1.35425 61.1542 0.0915647C60.9527 -0.665611 60.788 3.36639 60.788 9.04932C60.788 14.2098 60.788 19.3807 60.788 24.5418C60.788 29.7022 60.788 34.8738 60.788 40.0394C60.788 45.7217 60.9527 49.7492 61.1542 48.992C61.4906 47.7291 61.8264 46.4633 62.1621 45.2004C62.4979 43.9375 62.8335 42.6712 63.17 41.4083C63.3714 40.651 63.5365 37.2396 63.5365 33.8298C63.5365 30.7304 63.5365 27.6308 63.5365 24.5315C63.5365 21.437 63.5365 18.3377 63.5365 15.2373C63.5364 11.828 63.3714 8.42117 63.17 7.664Z" fill="white"/>
</mask>
<g mask="url(#mask5)">
<path d="M63.5365 -0.665787H60.7878V49.749H63.5365V-0.665787Z" fill="url(#paint5_linear)"/>
</g>
<path d="M113.673 67.6889C113.409 67.6452 113.099 67.6111 112.751 67.582C112.408 67.5575 112.026 67.5427 111.614 67.5427C110.33 67.5471 109.134 67.6598 108.036 67.8695C106.938 68.0838 105.972 68.3526 105.144 68.6838V83.6669H109.144V71.0838C109.398 70.9813 109.703 70.9036 110.056 70.8448C110.408 70.7912 110.771 70.7618 111.144 70.7618C111.472 70.7618 111.786 70.7809 112.094 70.8246C112.403 70.8642 112.683 70.9227 112.938 70.9956L113.673 67.6889Z" fill="#4D4D4D"/>
<path d="M103.123 71.7767C102.823 70.8983 102.388 70.147 101.804 69.513C101.226 68.8842 100.51 68.3955 99.6664 68.0602C98.8189 67.7179 97.8484 67.5471 96.7509 67.5427C95.5947 67.5471 94.5599 67.7475 93.6533 68.1479C92.7467 68.5472 91.9767 69.113 91.3444 69.845C90.7121 70.5761 90.2272 71.4396 89.899 72.4441C89.5652 73.4442 89.4035 74.5518 89.3984 75.7656C89.3984 76.9853 89.5705 78.0973 89.9132 79.1072C90.2563 80.1115 90.7606 80.9794 91.4374 81.7115C92.1097 82.448 92.942 83.0137 93.9366 83.4137C94.9375 83.8086 96.0891 84.0136 97.3975 84.0183C98.1675 84.0183 98.9178 83.9699 99.6424 83.8718C100.368 83.7745 101.04 83.6432 101.657 83.4725C102.269 83.3018 102.804 83.1014 103.25 82.8771L102.103 79.8926C101.726 80.0871 101.3 80.263 100.814 80.4093C100.333 80.5609 99.829 80.6773 99.2941 80.7606C98.7601 80.8429 98.2258 80.8873 97.6918 80.8873C96.913 80.8873 96.2169 80.7606 95.6043 80.5073C94.9862 80.2533 94.4813 79.8682 94.0842 79.3556C93.6922 78.8434 93.4322 78.2043 93.3101 77.4337L103.515 76.0578C103.544 75.8239 103.574 74.9317 103.574 74.7119C103.574 73.6347 103.422 72.6541 103.123 71.7767ZM93.0452 74.9169C93.0702 73.9316 93.2365 73.1077 93.5453 72.4439C93.8541 71.7766 94.2758 71.2784 94.8096 70.9422C95.3442 70.6059 95.9618 70.4395 96.6631 70.4395C97.2854 70.4395 97.8192 70.5718 98.2705 70.8397C98.7264 71.1033 99.0743 71.5031 99.3191 72.0298C99.5644 72.561 99.6919 73.2198 99.6919 74.0104L93.0452 74.9169Z" fill="#4D4D4D"/>
<path d="M87.7693 60.6949H83.7697V83.667H87.7693V60.6949Z" fill="#4D4D4D"/>
<path d="M81.2872 60.6949H77.2881V83.667H81.2872V60.6949Z" fill="#4D4D4D"/>
<path d="M75.2073 71.7767C74.9089 70.8983 74.4728 70.147 73.8889 69.513C73.3107 68.8842 72.5954 68.3955 71.7522 68.0602C70.9042 67.7179 69.9341 67.5471 68.8358 67.5427C67.6793 67.5471 66.6447 67.7475 65.7381 68.1479C64.8308 68.5472 64.062 69.113 63.4299 69.845C62.7972 70.5761 62.3124 71.4396 61.9833 72.4441C61.6505 73.4442 61.4886 74.5518 61.4841 75.7656C61.4841 76.9853 61.6556 78.0973 61.998 79.1072C62.3414 80.1115 62.8464 80.9794 63.5222 81.7115C64.1945 82.448 65.0273 83.0137 66.0224 83.4137C67.0222 83.8086 68.174 84.0136 69.4828 84.0183C70.2525 84.0183 71.0024 83.9699 71.7277 83.8718C72.453 83.7745 73.1241 83.6432 73.7422 83.4725C74.3546 83.3018 74.8886 83.1014 75.3346 82.8771L74.1883 79.8926C73.8108 80.0871 73.3845 80.263 72.8989 80.4093C72.4186 80.5609 71.9141 80.6773 71.3798 80.7606C70.8459 80.8429 70.3107 80.8873 69.7772 80.8873C68.9977 80.8873 68.3015 80.7606 67.6891 80.5073C67.0704 80.2533 66.5661 79.8682 66.1695 79.3556C65.7769 78.8434 65.5171 78.2043 65.3947 77.4337L75.5999 76.0578C75.6289 75.8239 75.6586 74.9317 75.6586 74.7119C75.6586 73.6347 75.5074 72.6541 75.2073 71.7767ZM65.1301 74.9169C65.1546 73.9316 65.3218 73.1077 65.6299 72.4439C65.9397 71.7766 66.3603 71.2784 66.8944 70.9422C67.4286 70.6059 68.0474 70.4395 68.7477 70.4395C69.37 70.4395 69.9042 70.5718 70.3558 70.8397C70.8108 71.1033 71.1591 71.5031 71.4044 72.0298C71.6494 72.561 71.7767 73.2198 71.7767 74.0104L65.1301 74.9169Z" fill="#4D4D4D"/>
<path d="M60.9431 83.4621V80.1552C60.8052 80.214 60.6335 80.2674 60.4231 80.3163C60.2173 80.3599 60.0061 80.3845 59.7958 80.39C59.4481 80.39 59.1392 80.3358 58.8638 80.2286C58.5901 80.1165 58.3737 79.9356 58.2169 79.6822C58.0558 79.4286 57.9775 79.0868 57.9722 78.6631V70.8782H60.943V67.8938H57.9722V63.2414L54.0314 64.3825V67.8938H52.002V70.8784H54.0314V78.9266C54.0261 80.58 54.394 81.8237 55.134 82.6526C55.8742 83.4864 57.0067 83.9016 58.5309 83.9016C58.8593 83.9016 59.1724 83.877 59.4814 83.8377C59.7902 83.7992 60.0701 83.7456 60.3252 83.6818C60.5744 83.6134 60.7804 83.54 60.9431 83.4621Z" fill="#4D4D4D"/>
<path d="M50.7846 67.8938H46.7848V83.667H50.7846V67.8938Z" fill="#4D4D4D"/>
<path d="M51.0785 63.2117C51.0739 62.8068 50.9703 62.4463 50.7643 62.124C50.559 61.8018 50.2845 61.5488 49.9414 61.363C49.5982 61.1732 49.2109 61.0803 48.7843 61.0759C48.3581 61.0803 47.971 61.1732 47.6279 61.363C47.2847 61.5488 47.0102 61.8017 46.8042 62.124C46.5984 62.4463 46.4961 62.807 46.491 63.2117C46.4963 63.6162 46.5984 63.9823 46.8042 64.3045C47.0102 64.6309 47.2847 64.8893 47.6279 65.0795C47.971 65.2747 48.3583 65.3728 48.7843 65.3772C49.2109 65.3728 49.5982 65.2747 49.9414 65.0795C50.2845 64.8893 50.559 64.6309 50.7643 64.3045C50.9703 63.9823 51.0739 63.6162 51.0785 63.2117Z" fill="#4D4D4D"/>
<path d="M44.5974 83.667V72.8688C44.5974 71.732 44.352 70.7715 43.8566 69.9764C43.3619 69.1864 42.6069 68.5813 41.5922 68.167C40.5732 67.752 39.284 67.5473 37.7149 67.5429C36.4115 67.5473 35.2401 67.6549 34.2008 67.8597C33.1615 68.0692 32.2251 68.3424 31.3926 68.6838V83.6669H35.3916V71.1129C35.6617 71.006 36.0093 70.9177 36.4309 70.8449C36.8479 70.7715 37.2987 70.7329 37.7746 70.7329C38.6909 70.7372 39.3817 70.9667 39.857 71.4106C40.3277 71.8588 40.5679 72.4781 40.5679 73.2784V83.6669H44.5974V83.667Z" fill="#4D4D4D"/>
<path d="M29.2633 82.8769V67.8938H25.2637V80.3902C25.0383 80.4821 24.725 80.5609 24.3228 80.6336C23.9208 80.702 23.4596 80.7361 22.9404 80.7413C22.0586 80.7457 21.3918 80.5409 20.941 80.1363C20.4897 79.7266 20.2643 79.103 20.2643 78.2542V67.8938H16.2645V78.1659C16.2645 79.5267 16.5196 80.6388 17.0248 81.5013C17.5247 82.3649 18.2745 83.0039 19.2645 83.4137C20.2547 83.8182 21.4796 84.0234 22.9404 84.0182C23.7687 84.0182 24.5818 83.9698 25.372 83.8716C26.1606 83.7744 26.8909 83.643 27.558 83.4723C28.2292 83.3018 28.7979 83.1012 29.2633 82.8769Z" fill="#4D4D4D"/>
</g>
<defs>
<linearGradient id="paint0_linear" x1="115.957" y1="24.5409" x2="66.1511" y2="24.5409" gradientUnits="userSpaceOnUse">
<stop stop-color="#003D41"/>
<stop offset="1" stop-color="#8FC575"/>
</linearGradient>
<linearGradient id="paint1_linear" x1="18.3164" y1="24.5422" x2="57.9623" y2="24.5422" gradientUnits="userSpaceOnUse">
<stop stop-color="#7ED688"/>
<stop offset="1" stop-color="#C2F8A8"/>
</linearGradient>
<linearGradient id="paint2_linear" x1="86.3659" y1="24.5409" x2="57.7087" y2="24.5409" gradientUnits="userSpaceOnUse">
<stop stop-color="#005741"/>
<stop offset="1" stop-color="#8FC575"/>
</linearGradient>
<linearGradient id="paint3_linear" x1="48.4614" y1="24.5422" x2="69.3842" y2="24.5422" gradientUnits="userSpaceOnUse">
<stop stop-color="#65BD6F"/>
<stop offset="1" stop-color="#C2F8A8"/>
</linearGradient>
<linearGradient id="paint4_linear" x1="69.1491" y1="24.542" x2="63.5372" y2="24.542" gradientUnits="userSpaceOnUse">
<stop stop-color="#187041"/>
<stop offset="1" stop-color="#F5F8FF"/>
</linearGradient>
<linearGradient id="paint5_linear" x1="60.7836" y1="24.5422" x2="69.1481" y2="24.5422" gradientUnits="userSpaceOnUse">
<stop stop-color="#4BA354"/>
<stop offset="1" stop-color="#F6F6FB"/>
</linearGradient>
<clipPath id="clip0">
<path d="M0 0H130V84H0V0Z" fill="white"/>
</clipPath>
</defs>
</svg>
