<svg width="58" height="38" viewBox="0 0 58 38" fill="none" xmlns="http://www.w3.org/2000/svg">
<path fill-rule="evenodd" clip-rule="evenodd" d="M19.2396 34.2396C23.2814 34.2396 27.1576 32.634 30.0156 29.776C32.8736 26.918 34.4792 23.0418 34.4792 19C34.4792 14.9582 32.8736 11.082 30.0156 8.22398C27.1576 5.36601 23.2814 3.76041 19.2396 3.76041C15.1978 3.76041 11.3215 5.36601 8.46357 8.22398C5.60559 11.082 4 14.9582 4 19C4 23.0418 5.60559 26.918 8.46357 29.776C11.3215 32.634 15.1978 34.2396 19.2396 34.2396Z" fill="#D2222B"/>
<path fill-rule="evenodd" clip-rule="evenodd" d="M38.6356 34.2396C42.6774 34.2396 46.5536 32.634 49.4116 29.776C52.2696 26.918 53.8752 23.0418 53.8752 19C53.8752 14.9582 52.2696 11.082 49.4116 8.22398C46.5536 5.36601 42.6774 3.76041 38.6356 3.76041C34.5938 3.76041 30.7175 5.36601 27.8596 8.22398C25.0016 11.082 23.396 14.9582 23.396 19C23.396 23.0418 25.0016 26.918 27.8596 29.776C30.7175 32.634 34.5938 34.2396 38.6356 34.2396Z" fill="#00A3D4"/>
<path fill-rule="evenodd" clip-rule="evenodd" d="M28.9377 7.24368C27.2028 8.67214 25.8061 10.4673 24.8479 12.5001C23.8897 14.5328 23.3938 16.7527 23.396 18.9999C23.3938 21.2472 23.8897 23.467 24.8479 25.4998C25.8061 27.5325 27.2028 29.3277 28.9377 30.7562C30.6725 29.3277 32.0693 27.5325 33.0275 25.4998C33.9857 23.467 34.4815 21.2472 34.4793 18.9999C34.4815 16.7527 33.9857 14.5328 33.0275 12.5001C32.0693 10.4673 30.6725 8.67214 28.9377 7.24368Z" fill="#6F6FA5"/>
</svg>
