<svg width="58" height="38" viewBox="0 0 58 38" fill="none" xmlns="http://www.w3.org/2000/svg">
<path fill-rule="evenodd" clip-rule="evenodd" d="M18.4896 34.2396C22.5314 34.2396 26.4076 32.634 29.2656 29.776C32.1236 26.918 33.7292 23.0418 33.7292 19C33.7292 14.9582 32.1236 11.082 29.2656 8.22398C26.4076 5.36601 22.5314 3.76041 18.4896 3.76041C14.4478 3.76041 10.5715 5.36601 7.71357 8.22398C4.85559 11.082 3.25 14.9582 3.25 19C3.25 23.0418 4.85559 26.918 7.71357 29.776C10.5715 32.634 14.4478 34.2396 18.4896 34.2396Z" fill="#EB001B"/>
<path fill-rule="evenodd" clip-rule="evenodd" d="M37.8856 34.2396C41.9274 34.2396 45.8036 32.634 48.6616 29.776C51.5196 26.918 53.1252 23.0418 53.1252 19C53.1252 14.9582 51.5196 11.082 48.6616 8.22398C45.8036 5.36601 41.9274 3.76041 37.8856 3.76041C33.8438 3.76041 29.9675 5.36601 27.1096 8.22398C24.2516 11.082 22.646 14.9582 22.646 19C22.646 23.0418 24.2516 26.918 27.1096 29.776C29.9675 32.634 33.8438 34.2396 37.8856 34.2396Z" fill="#F79E1B"/>
<path fill-rule="evenodd" clip-rule="evenodd" d="M28.1877 7.24368C26.4528 8.67214 25.0561 10.4673 24.0979 12.5001C23.1397 14.5328 22.6438 16.7527 22.646 18.9999C22.6438 21.2472 23.1397 23.467 24.0979 25.4998C25.0561 27.5325 26.4528 29.3277 28.1877 30.7562C29.9225 29.3277 31.3193 27.5325 32.2775 25.4998C33.2357 23.467 33.7315 21.2472 33.7293 18.9999C33.7315 16.7527 33.2357 14.5328 32.2775 12.5001C31.3193 10.4673 29.9225 8.67214 28.1877 7.24368Z" fill="#FF5F00"/>
</svg>
