<svg width="57" height="38" viewBox="0 0 57 38" fill="none" xmlns="http://www.w3.org/2000/svg">
<path d="M38.5002 12.6667C38.5192 13.0372 38.5715 13.4061 38.657 13.7671C38.676 13.8462 38.6934 13.9254 38.7172 14.003L38.7425 14.098C39.1444 15.364 39.9386 16.4694 41.0103 17.2541C42.0819 18.0389 43.3755 18.4623 44.7037 18.4632H52.9656C53.0915 17.7545 53.0608 17.0268 52.8756 16.3312C52.6904 15.6356 52.3551 14.989 51.8934 14.4368C51.4317 13.8845 50.8547 13.44 50.2029 13.1345C49.5512 12.829 48.8404 12.6699 48.1206 12.6682H38.5002V12.6667Z" fill="url(#paint0_linear)"/>
<path fill-rule="evenodd" clip-rule="evenodd" d="M30.7769 14.1455L27.6435 20.9301H27.3252V12.6667H22.8761V26.6538H26.6523C27.1381 26.654 27.6137 26.5149 28.0228 26.2531C28.4319 25.9913 28.7575 25.6177 28.9608 25.1766L32.0942 18.3888H32.4109V26.6538H36.8601V12.6667H33.0854C32.5996 12.6663 32.124 12.8053 31.7148 13.0672C31.3056 13.329 30.9801 13.7027 30.7769 14.1439V14.1455ZM38.7078 19.3103V26.6507H43.1823V22.5182H47.6837C50.0366 22.5182 52.0427 21.1834 52.8185 19.3103H38.7094H38.7078ZM11.9099 20.9317L10.0558 14.5033C9.90274 13.9737 9.58168 13.5082 9.14104 13.177C8.70039 12.8457 8.16403 12.6666 7.61275 12.6667H3.16675V26.6538H7.61908V18.3888H7.93575L10.4833 26.6538H13.6579L16.2007 18.3888H16.519V26.6538H20.9682V12.6667H16.5317C15.9793 12.6652 15.4415 12.8437 14.9996 13.1751C14.5576 13.5064 14.2356 13.9727 14.0822 14.5033L12.2297 20.9317H11.9115H11.9099Z" fill="#006848"/>
<defs>
<linearGradient id="paint0_linear" x1="38.5002" y1="15.5657" x2="53.0527" y2="15.5657" gradientUnits="userSpaceOnUse">
<stop stop-color="#00AFFF"/>
<stop offset="0.01" stop-color="#00AFFF"/>
<stop offset="1" stop-color="#1F5BD7"/>
</linearGradient>
</defs>
</svg>
