<svg width="58" height="38" viewBox="0 0 58 38" fill="none" xmlns="http://www.w3.org/2000/svg">
<path fill-rule="evenodd" clip-rule="evenodd" d="M24.9579 11.2311H29.1569L26.5302 26.5039H22.3328L24.9579 11.2311Z" fill="url(#paint0_linear)"/>
<path fill-rule="evenodd" clip-rule="evenodd" d="M41.7808 11.7248C40.9489 11.4154 39.6454 11.0833 38.0174 11.0833C33.8683 11.0833 30.9456 13.155 30.9207 16.1239C30.8973 18.3187 33.0072 19.5429 34.6 20.2736C36.2345 21.0222 36.7839 21.4997 36.7761 22.1682C36.7658 23.1921 35.4708 23.6598 34.264 23.6598C32.5833 23.6598 31.6904 23.4283 30.3114 22.858L29.7703 22.6153L29.1809 26.0345C30.1616 26.4608 31.9753 26.8303 33.8584 26.8494C38.2723 26.8494 41.1377 24.8015 41.1703 21.631C41.1861 19.8935 40.0673 18.5712 37.6449 17.4812C36.1771 16.7746 35.2783 16.3031 35.2878 15.5876C35.2878 14.9527 36.0486 14.2739 37.6925 14.2739C39.0656 14.2527 40.0602 14.5496 40.8353 14.859L41.2115 15.0353L41.7808 11.7248Z" fill="url(#paint1_linear)"/>
<path fill-rule="evenodd" clip-rule="evenodd" d="M52.5483 11.3634H49.3036C48.2985 11.3634 47.5463 11.6353 47.1049 12.63L40.8687 26.6276H45.278C45.278 26.6276 45.9989 24.7455 46.162 24.3323C46.6438 24.3323 50.9273 24.3388 51.5397 24.3388C51.6653 24.8735 52.0506 26.6276 52.0506 26.6276H55.9469L52.5483 11.3634ZM47.3704 21.2082C47.7177 20.3281 49.0434 16.9384 49.0434 16.9384C49.0186 16.9791 49.3881 16.0541 49.6002 15.4806L49.8839 16.7975C49.8839 16.7975 50.688 20.4435 50.8561 21.208L47.3704 21.2082V21.2082Z" fill="url(#paint2_linear)"/>
<path fill-rule="evenodd" clip-rule="evenodd" d="M18.8328 11.3607L14.7217 21.7764L14.2837 19.6597C13.5184 17.2197 11.134 14.576 8.46826 13.2525L12.2273 26.6103L16.67 26.6053L23.2807 11.3607H18.8328Z" fill="url(#paint3_linear)"/>
<path fill-rule="evenodd" clip-rule="evenodd" d="M10.9078 11.3513H4.13684L4.08325 11.6691C9.35101 12.9333 12.8366 15.9886 14.2835 19.6597L12.8112 12.6408C12.557 11.6736 11.8198 11.385 10.9078 11.3513Z" fill="url(#paint4_linear)"/>
<defs>
<linearGradient id="paint0_linear" x1="6.39417" y1="15.2109" x2="47.7835" y2="15.1349" gradientUnits="userSpaceOnUse">
<stop stop-color="#191E5F"/>
<stop offset="1" stop-color="#142787" stop-opacity="0.818"/>
</linearGradient>
<linearGradient id="paint1_linear" x1="6.18847" y1="15.4595" x2="57.5996" y2="15.1576" gradientUnits="userSpaceOnUse">
<stop stop-color="#191E5F"/>
<stop offset="1" stop-color="#142787" stop-opacity="0.818"/>
</linearGradient>
<linearGradient id="paint2_linear" x1="6.18838" y1="15.4597" x2="57.5987" y2="14.9984" gradientUnits="userSpaceOnUse">
<stop stop-color="#191E5F"/>
<stop offset="1" stop-color="#142787" stop-opacity="0.818"/>
</linearGradient>
<linearGradient id="paint3_linear" x1="6.41541" y1="15.3296" x2="47.8059" y2="14.9706" gradientUnits="userSpaceOnUse">
<stop stop-color="#191E5F"/>
<stop offset="1" stop-color="#142787" stop-opacity="0.818"/>
</linearGradient>
<linearGradient id="paint4_linear" x1="6.41524" y1="15.3296" x2="47.8029" y2="14.7561" gradientUnits="userSpaceOnUse">
<stop stop-color="#191E5F"/>
<stop offset="1" stop-color="#142787" stop-opacity="0.818"/>
</linearGradient>
</defs>
</svg>
